<?xml version="1.0" encoding="iso-8859-1"?>
<!-- Generator: Adobe Illustrator 21.0.0, SVG Export Plug-In . SVG Version: 6.00 Build 0)  -->
<svg version="1.1" id="Capa_1" xmlns="http://www.w3.org/2000/svg" xmlns:xlink="http://www.w3.org/1999/xlink" x="0px" y="0px"
	 viewBox="0 0 512 512" style="enable-background:new 0 0 512 512;" xml:space="preserve">
<g>
	<path d="M489.463,20.965H22.537C10.11,20.965,0,31.075,0,43.502v295.035c0,12.427,10.11,22.538,22.537,22.538h172.066
		l-15.052,78.703h-10.502c-14.131,0-25.628,11.497-25.628,25.628c0,14.132,11.497,25.629,25.628,25.629h173.901
		c14.131,0,25.628-11.497,25.628-25.629c0-14.131-11.497-25.628-25.628-25.628h-10.502l-4.508-23.572
		c-0.778-4.069-4.71-6.736-8.775-5.958c-4.068,0.778-6.736,4.707-5.958,8.775l3.969,20.754H194.823l15.052-78.703h92.25
		l4.508,23.571c0.778,4.069,4.709,6.732,8.775,5.958c4.068-0.778,6.736-4.707,5.958-8.775l-3.969-20.754h172.066
		c12.427,0,22.537-10.11,22.537-22.538V43.502C512,31.075,501.89,20.965,489.463,20.965z M342.951,454.777
		c5.86,0,10.628,4.768,10.628,10.628c0,5.861-4.768,10.629-10.628,10.629H169.049c-5.86,0-10.628-4.768-10.628-10.629
		c0-5.86,4.768-10.628,10.628-10.628H342.951z M497,338.537c0,4.156-3.381,7.538-7.537,7.538c-17.969,0-441.843,0-466.926,0
		c-4.156,0-7.537-3.381-7.537-7.538V43.502c0-4.156,3.381-7.537,7.537-7.537h466.926c4.156,0,7.537,3.381,7.537,7.537V338.537z"/>
	<path d="M477.332,45.965H34.668c-5.331,0-9.668,4.337-9.668,9.669v229.563c0,5.332,4.337,9.669,9.668,9.669h442.663
		c5.331,0,9.668-4.337,9.668-9.669V55.634C487,50.303,482.663,45.965,477.332,45.965z M472,60.965v14.402H193.529
		c-4.142,0-7.5,3.358-7.5,7.5s3.358,7.5,7.5,7.5H472v189.5h-0.216L365.273,173.355c-9.287-9.288-24.4-9.288-33.689,0l-41.212,41.212
		l-75.549-75.549c-9.289-9.289-24.401-9.288-33.689,0L40.286,279.867H40v-86.564h71.14c7.73,0,14.019-6.289,14.019-14.019V90.367
		h33.371c4.142,0,7.5-3.358,7.5-7.5s-3.358-7.5-7.5-7.5H40V60.965H472z M350.064,240.583h-33.677l-15.409-15.409l41.212-41.212
		c3.44-3.439,9.038-3.439,12.476,0l95.904,95.905h-86.142v-24.919C364.429,247.027,357.985,240.583,350.064,240.583z M40,90.367
		h70.159v87.935H40V90.367z M162.571,279.867v-24.284h88.747c4.142,0,7.5-3.358,7.5-7.5s-3.358-7.5-7.5-7.5h-89.382
		c-7.921,0-14.365,6.444-14.365,14.365v24.919H61.498L191.74,149.625c3.449-3.448,9.027-3.448,12.476,0l90.958,90.958h-8.856
		c-4.142,0-7.5,3.358-7.5,7.5s3.358,7.5,7.5,7.5h63.111v24.284H162.571z"/>
	<circle cx="177.937" cy="267.724" r="6.662"/>
	<circle cx="209.162" cy="267.724" r="6.662"/>
	<circle cx="240.387" cy="267.724" r="6.662"/>
	<circle cx="271.613" cy="267.724" r="6.662"/>
	<circle cx="302.838" cy="267.724" r="6.662"/>
	<circle cx="334.064" cy="267.724" r="6.662"/>
	<path d="M95.801,98.922H54.358c-4.142,0-7.5,3.358-7.5,7.5s3.358,7.5,7.5,7.5h41.442c4.142,0,7.5-3.358,7.5-7.5
		S99.943,98.922,95.801,98.922z"/>
	<path d="M95.801,126.835H54.358c-4.142,0-7.5,3.358-7.5,7.5s3.358,7.5,7.5,7.5h41.442c4.142,0,7.5-3.358,7.5-7.5
		S99.943,126.835,95.801,126.835z"/>
	<path d="M95.801,154.748H54.358c-4.142,0-7.5,3.358-7.5,7.5s3.358,7.5,7.5,7.5h41.442c4.142,0,7.5-3.358,7.5-7.5
		S99.943,154.748,95.801,154.748z"/>
	<path d="M256,299.17c-11.726,0-21.265,9.54-21.265,21.266c0,11.726,9.54,21.265,21.265,21.265s21.265-9.54,21.265-21.265
		C277.265,308.71,267.726,299.17,256,299.17z M256,326.701c-3.455,0-6.265-2.811-6.265-6.265c0-3.455,2.811-6.266,6.265-6.266
		s6.265,2.811,6.265,6.266C262.265,323.891,259.455,326.701,256,326.701z"/>
</g>
<g>
</g>
<g>
</g>
<g>
</g>
<g>
</g>
<g>
</g>
<g>
</g>
<g>
</g>
<g>
</g>
<g>
</g>
<g>
</g>
<g>
</g>
<g>
</g>
<g>
</g>
<g>
</g>
<g>
</g>
</svg>
