<?xml version="1.0" encoding="iso-8859-1"?>
<!-- Generator: Adobe Illustrator 21.0.0, SVG Export Plug-In . SVG Version: 6.00 Build 0)  -->
<svg version="1.1" id="Capa_1" xmlns="http://www.w3.org/2000/svg" xmlns:xlink="http://www.w3.org/1999/xlink" x="0px" y="0px"
	 viewBox="0 0 512 512" style="enable-background:new 0 0 512 512;" xml:space="preserve">
<g>
	<path d="M438.247,0H73.753C33.085,0,0,33.085,0,73.753v364.494C0,478.915,33.085,512,73.753,512h364.494
		C478.915,512,512,478.915,512,438.247V293.55c0-4.142-3.358-7.5-7.5-7.5s-7.5,3.358-7.5,7.5v46.75h-35V171.7h35v86.85
		c0,4.142,3.358,7.5,7.5,7.5s7.5-3.358,7.5-7.5V73.753C512,33.085,478.915,0,438.247,0z M239.438,50c-4.142,0-7.5,3.358-7.5,7.5
		s3.358,7.5,7.5,7.5h187.326C437.922,65,447,74.078,447,85.235v341.529c0,11.158-9.078,20.235-20.235,20.235H85.235
		C74.078,447,65,437.922,65,426.765V85.235C65,74.078,74.078,65,85.235,65h119.203c4.142,0,7.5-3.358,7.5-7.5s-3.358-7.5-7.5-7.5
		H171.7V15h168.6v35H239.438z M15,171.7h35v168.6H15V171.7z M73.753,15H156.7v35H85.235C65.807,50,50,65.807,50,85.235V156.7H15
		V73.753C15,41.356,41.356,15,73.753,15z M15,438.247V355.3h35v71.465C50,446.193,65.807,462,85.235,462H156.7v35H73.753
		C41.356,497,15,470.644,15,438.247z M171.7,497v-35h168.6v35H171.7z M497,355.3v82.947C497,470.644,470.644,497,438.247,497H355.3
		v-35h71.465C446.193,462,462,446.193,462,426.765V355.3H497z M462,156.7V85.235C462,65.807,446.193,50,426.765,50H355.3V15h82.947
		C470.644,15,497,41.356,497,73.753V156.7H462z"/>
	<path d="M251.659,143.912h8.683c9.273,0,16.817-7.544,16.817-16.817V97.447c0-9.273-7.544-16.818-16.817-16.818h-8.683
		c-9.273,0-16.817,7.544-16.817,16.818v29.647C234.841,136.367,242.386,143.912,251.659,143.912z M249.841,97.447
		c0-1.002,0.815-1.818,1.817-1.818h8.683c1.002,0,1.817,0.815,1.817,1.818v29.647c0,1.002-0.815,1.817-1.817,1.817h-8.683
		c-1.002,0-1.817-0.815-1.817-1.817V97.447z"/>
	<path d="M173.223,154.943c4.637,8.033,14.902,10.816,22.973,6.156l7.519-4.341c0,0,0,0,0,0c8.03-4.637,10.792-14.943,6.155-22.974
		l-14.824-25.674c-4.645-8.048-14.923-10.805-22.973-6.156l-7.519,4.341c-8.031,4.636-10.793,14.942-6.156,22.973L173.223,154.943z
		 M172.055,119.286l7.52-4.341c0.875-0.505,1.979-0.206,2.482,0.666l14.824,25.674c0.501,0.869,0.203,1.982-0.666,2.484
		l-7.519,4.341c-0.882,0.509-1.986,0.196-2.482-0.665l-14.824-25.675C170.889,120.901,171.187,119.787,172.055,119.286z"/>
	<path d="M108.11,195.047l25.675,14.824c8.066,4.657,18.357,1.839,22.973-6.156l4.341-7.519c4.648-8.049,1.895-18.326-6.155-22.973
		l-25.676-14.824c-8.03-4.636-18.336-1.875-22.973,6.156l-4.341,7.519C97.307,180.123,100.059,190.4,108.11,195.047z
		 M114.944,179.574l4.341-7.52c0.5-0.864,1.61-1.168,2.483-0.665l25.676,14.824c0.864,0.499,1.171,1.605,0.665,2.482c0,0,0,0,0,0
		l-4.341,7.519c-0.501,0.868-1.616,1.166-2.483,0.666l-25.675-14.824C114.739,181.553,114.441,180.447,114.944,179.574z"/>
	<path d="M143.912,260.341v-8.683c0-9.273-7.544-16.817-16.817-16.817H97.447c-9.273,0-16.818,7.544-16.818,16.817v8.683
		c0,9.273,7.544,16.817,16.818,16.817h29.647C136.367,277.159,143.912,269.614,143.912,260.341z M95.629,260.341v-8.683
		c0-1.002,0.815-1.817,1.818-1.817h29.647c1.002,0,1.817,0.815,1.817,1.817v8.683c0,1.002-0.815,1.817-1.817,1.817H97.447
		C96.445,262.159,95.629,261.343,95.629,260.341z"/>
	<path d="M161.099,315.804l-4.341-7.519c0,0,0,0,0,0c-4.638-8.03-14.942-10.792-22.974-6.155l-25.674,14.824
		c-8.05,4.646-10.804,14.923-6.156,22.973l4.341,7.519c4.613,7.992,14.905,10.814,22.973,6.156l25.675-14.824
		C162.994,334.13,165.747,323.854,161.099,315.804z M147.444,325.787l-25.675,14.824c-0.869,0.5-1.982,0.203-2.483-0.666
		l-4.341-7.52c-0.503-0.871-0.207-1.978,0.666-2.482l25.674-14.824c0.866-0.499,1.98-0.207,2.484,0.666l4.341,7.519
		C148.612,324.176,148.315,325.284,147.444,325.787z"/>
	<path d="M203.715,355.242l-7.519-4.341c-8.05-4.647-18.325-1.896-22.973,6.155l-14.824,25.676
		c-4.637,8.031-1.875,18.336,6.156,22.973l7.519,4.341c8.05,4.647,18.326,1.896,22.974-6.156l14.824-25.675
		C214.507,370.185,211.746,359.878,203.715,355.242z M196.881,370.715l-14.824,25.675c-0.504,0.871-1.61,1.168-2.483,0.665
		l-7.52-4.341c-0.868-0.501-1.166-1.615-0.665-2.483l14.824-25.676c0.498-0.863,1.602-1.173,2.482-0.665c0,0,0,0,0,0l7.519,4.341
		C197.083,368.733,197.382,369.847,196.881,370.715z"/>
	<path d="M260.341,368.088h-8.683c-9.273,0-16.817,7.544-16.817,16.817v29.647c0,9.273,7.544,16.818,16.817,16.818h8.683
		c9.273,0,16.817-7.544,16.817-16.818v-29.647C277.159,375.633,269.614,368.088,260.341,368.088z M262.159,414.553
		c0,1.002-0.815,1.818-1.817,1.818h-8.683c-1.002,0-1.817-0.815-1.817-1.818v-29.647c0-1.002,0.815-1.817,1.817-1.817h8.683
		c1.002,0,1.817,0.815,1.817,1.817V414.553z"/>
	<path d="M338.777,357.057c-4.646-8.049-14.922-10.805-22.973-6.156l-7.519,4.341c0,0,0,0,0,0
		c-8.03,4.637-10.792,14.943-6.155,22.974l14.824,25.674c4.634,8.029,14.899,10.819,22.973,6.156l7.519-4.341
		c8.031-4.636,10.793-14.942,6.156-22.973L338.777,357.057z M339.945,392.714l-7.52,4.341c-0.879,0.508-1.983,0.198-2.482-0.666
		l-14.824-25.674c-0.501-0.869-0.203-1.982,0.666-2.484l7.519-4.341c0.87-0.502,1.979-0.207,2.482,0.665l14.824,25.675
		C341.111,391.099,340.813,392.213,339.945,392.714z"/>
	<path d="M403.89,316.953l-25.675-14.824c-8.03-4.637-18.336-1.875-22.973,6.156l-4.341,7.519
		c-4.648,8.049-1.895,18.326,6.155,22.973l25.676,14.824c8.098,4.675,18.376,1.807,22.973-6.156l4.341-7.519
		C414.693,331.877,411.941,321.6,403.89,316.953z M397.056,332.426l-4.341,7.52c-0.5,0.867-1.614,1.166-2.483,0.665l-25.676-14.824
		c-0.864-0.499-1.171-1.605-0.665-2.482c0,0,0,0,0,0l4.341-7.519c0.501-0.869,1.614-1.167,2.483-0.666l25.675,14.824
		C397.261,330.447,397.559,331.553,397.056,332.426z"/>
	<path d="M368.088,251.659v8.683c0,9.273,7.544,16.817,16.817,16.817h29.647c9.273,0,16.818-7.544,16.818-16.817v-8.683
		c0-9.273-7.544-16.817-16.818-16.817h-29.647C375.633,234.841,368.088,242.386,368.088,251.659z M416.371,251.659v8.683
		c0,1.002-0.815,1.817-1.818,1.817h-29.647c-1.002,0-1.817-0.815-1.817-1.817v-8.683c0-1.002,0.815-1.817,1.817-1.817h29.647
		C415.555,249.841,416.371,250.657,416.371,251.659z"/>
	<path d="M350.901,196.196l4.341,7.519c0,0,0,0,0,0c4.615,7.992,14.907,10.812,22.974,6.155l25.674-14.824
		c8.05-4.646,10.804-14.923,6.156-22.973l-4.341-7.519c-4.636-8.031-14.942-10.793-22.973-6.156l-25.675,14.824
		C349.006,177.87,346.253,188.146,350.901,196.196z M364.556,186.213l25.675-14.824c0.868-0.5,1.982-0.203,2.483,0.666l4.341,7.52
		c0.503,0.871,0.207,1.978-0.666,2.482l-25.674,14.824c-0.868,0.501-1.982,0.203-2.484-0.666l-4.341-7.519
		C363.388,187.824,363.685,186.716,364.556,186.213z"/>
	<path d="M308.285,156.758l7.519,4.341c8.068,4.658,18.334,1.881,22.973-6.155l14.824-25.676c4.637-8.031,1.875-18.336-6.156-22.973
		l-7.519-4.341c-8.05-4.647-18.326-1.895-22.974,6.156l-14.824,25.675C297.493,141.815,300.254,152.122,308.285,156.758z
		 M315.119,141.285l14.824-25.675c0.502-0.868,1.607-1.17,2.483-0.665l7.52,4.341c0.868,0.501,1.166,1.615,0.665,2.483
		l-14.824,25.676c-0.496,0.859-1.6,1.174-2.482,0.665c0,0,0,0,0,0l-7.519-4.341C314.917,143.267,314.618,142.153,315.119,141.285z"
		/>
	<path d="M181.209,181.209c-7.259,7.259-7.259,19.07,0,26.329l49.81,49.81c0.703,13.171,11.639,23.67,24.981,23.67
		c11.643,0,21.453-7.994,24.231-18.782l10.182-10.182c2.929-2.929,2.929-7.678,0-10.606c-2.929-2.929-7.678-2.929-10.606,0
		l-2.109,2.109c-2.211-3.841-5.413-7.042-9.253-9.253l34.279-34.279c2.012-2.012,5.291-2.009,7.303,0l1.944,1.944
		c2.015,2.019,2.017,5.297,0.005,7.309l-7.42,7.42c-2.929,2.929-2.929,7.678,0,10.606c2.929,2.929,7.678,2.929,10.606,0l7.42-7.419
		c7.854-7.854,7.857-20.645,0-28.517l-1.955-1.955c-7.867-7.851-20.657-7.849-28.511,0.005l-38.185,38.185l-46.394-46.393
		C200.279,173.95,188.468,173.95,181.209,181.209z M191.815,191.815c1.411-1.41,3.706-1.41,5.116,0l44.129,44.129
		c-1.942,1.45-3.667,3.175-5.116,5.116l-44.129-44.129C190.405,195.521,190.405,193.226,191.815,191.815z M256,266.018
		c-5.821,0-10.455-4.976-9.985-10.828c0.013-0.105,0.023-0.211,0.031-0.316c0.492-4.373,3.808-7.902,8.077-8.714
		c0.51-0.045,0.578-0.089,1.022-0.14c5.892-0.5,10.872,4.166,10.872,9.981C266.018,261.496,261.549,266.018,256,266.018z"/>
</g>
<g>
</g>
<g>
</g>
<g>
</g>
<g>
</g>
<g>
</g>
<g>
</g>
<g>
</g>
<g>
</g>
<g>
</g>
<g>
</g>
<g>
</g>
<g>
</g>
<g>
</g>
<g>
</g>
<g>
</g>
</svg>
