<?xml version="1.0" encoding="iso-8859-1"?>
<!-- Generator: Adobe Illustrator 21.0.0, SVG Export Plug-In . SVG Version: 6.00 Build 0)  -->
<svg version="1.1" id="Capa_1" xmlns="http://www.w3.org/2000/svg" xmlns:xlink="http://www.w3.org/1999/xlink" x="0px" y="0px"
	 viewBox="0 0 512 512" style="enable-background:new 0 0 512 512;" xml:space="preserve">
<g>
	<path d="M255.997,226.781c25.499,0,46.243-20.745,46.243-46.244s-20.744-46.244-46.243-46.244s-46.244,20.745-46.244,46.244
		S230.498,226.781,255.997,226.781z M255.997,149.293c17.228,0,31.243,14.016,31.243,31.244s-14.016,31.244-31.243,31.244
		c-17.228,0-31.244-14.016-31.244-31.244S238.769,149.293,255.997,149.293z"/>
	<path d="M255.997,201.245c11.418,0,20.708-9.29,20.708-20.708c0-11.418-9.29-20.708-20.708-20.708
		c-11.418,0-20.708,9.29-20.708,20.708C235.289,191.956,244.578,201.245,255.997,201.245z M255.997,174.83
		c3.147,0,5.708,2.561,5.708,5.708c0,3.147-2.561,5.708-5.708,5.708s-5.708-2.561-5.708-5.708
		C250.289,177.39,252.849,174.83,255.997,174.83z"/>
	<path d="M459.953,180.27c-5.966-6.462-15.196-8.85-23.531-6.11C433.051,77.553,353.411,0,255.997,0
		c-53.969,0-104.681,23.869-139.132,65.487c-2.641,3.191-2.196,7.919,0.995,10.56c3.191,2.641,7.918,2.196,10.56-0.995
		c5.899-7.126,12.319-13.685,19.18-19.64c9.378,16.591,31.06,24.144,49.439,14.319c36.771-19.653,81.224-19.61,117.917,0
		c18.257,9.76,39.942,2.388,49.396-14.244c27.969,24.267,47.746,57.74,54.568,95.655h-86.216
		c-11.85-30.819-41.766-52.749-76.707-52.749s-64.857,21.93-76.707,52.749H93.094c2.997-16.63,8.516-32.767,16.379-47.681
		c1.932-3.664,0.527-8.201-3.137-10.132c-3.665-1.932-8.201-0.527-10.132,3.137c-12.587,23.878-19.671,50.62-20.631,77.718
		c-14.822-4.962-30.647,6.681-29.442,23.201c3.678,46.246,23.027,90.665,54.485,125.073c31.259,34.192,73.421,57.421,118.708,65.406
		c0.432,0.077,0.734,0.413,0.734,0.816v35.508h-4.299c-6.762,0-12.807,4.288-15.042,10.668l-7.063,20.161h-36.128
		c-13.509,0-24.5,10.991-24.5,24.5V504.5c0,4.142,3.358,7.5,7.5,7.5h230.941c4.143,0,7.5-3.358,7.5-7.5v-24.982
		c0-13.509-10.99-24.5-24.5-24.5H318.34l-7.063-20.162c-2.236-6.38-8.281-10.667-15.042-10.667h-4.298V388.68
		c0-0.404,0.302-0.739,0.722-0.814c41.282-7.277,79.149-26.618,109.508-55.931c2.979-2.877,3.063-7.625,0.186-10.605
		c-2.877-2.98-7.625-3.063-10.605-0.186c-28.199,27.229-63.364,45.193-101.703,51.951c-7.595,1.352-13.106,7.906-13.106,15.584
		v35.508h-41.88V388.68c0-7.679-5.512-14.233-13.118-15.586c-87.656-15.455-153.803-88.199-160.852-176.847
		c-0.343-4.73,3.306-8.207,7.47-8.207c3.921,0,7.123,2.987,7.477,6.959c7.391,92.812,85.282,166.075,179.963,166.075
		c94.66,0,172.537-73.23,179.958-166.013c0.332-3.992,3.55-7.021,7.483-7.021c4.391,0,7.827,3.742,7.473,8.156
		c-2.858,35.958-15.672,70.404-37.055,99.614c-2.446,3.342-1.721,8.035,1.622,10.482c3.362,2.462,8.051,1.699,10.481-1.622
		c23.026-31.456,36.824-68.555,39.904-107.282C466.364,191.121,464.21,184.881,459.953,180.27z M322.026,56.502
		c-41.188-22.014-90.954-21.969-132.058,0c-11.525,6.159-25.42,0.812-30.349-10.584c56.956-40.855,134.621-41.647,192.722,0.078
		C347.448,57.19,333.656,62.718,322.026,56.502z M363.968,479.518V497H148.026v-17.482c0-5.238,4.262-9.5,9.5-9.5h196.941
		C359.706,470.018,363.968,474.279,363.968,479.518z M297.121,439.816l5.325,15.202h-92.898l5.325-15.202
		c0.132-0.375,0.487-0.627,0.885-0.627h80.477C296.634,439.188,296.989,439.441,297.121,439.816z M420.913,166.143
		c0.828,9.566,0.828,19.216,0,28.789h-84.036c1.683-9.485,1.685-19.295,0-28.789H420.913z M255.997,113.394
		c37.023,0,67.144,30.12,67.144,67.143s-30.12,67.143-67.144,67.143c-37.023,0-67.143-30.12-67.143-67.143
		S218.974,113.394,255.997,113.394z M255.997,346.074c-81.248,0-149.013-58.838-162.923-136.143h30.923c4.142,0,7.5-3.358,7.5-7.5
		s-3.358-7.5-7.5-7.5H91.081c-0.829-9.58-0.83-19.207,0.009-28.789h84.027c-1.683,9.484-1.685,19.295,0,28.789h-16.12
		c-4.142,0-7.5,3.358-7.5,7.5s3.358,7.5,7.5,7.5h20.293c11.85,30.819,41.765,52.749,76.707,52.749s64.857-21.93,76.707-52.749
		h86.216C405.01,287.236,337.245,346.074,255.997,346.074z"/>
	<path d="M286.55,278.417h-61.105c-12.776,0-23.171,10.395-23.171,23.171s10.395,23.17,23.171,23.17h61.105
		c12.776,0,23.171-10.394,23.171-23.17S299.326,278.417,286.55,278.417z M286.55,309.759h-61.105c-4.505,0-8.171-3.665-8.171-8.17
		s3.666-8.171,8.171-8.171h61.105c4.506,0,8.171,3.666,8.171,8.171S291.056,309.759,286.55,309.759z"/>
</g>
<g>
</g>
<g>
</g>
<g>
</g>
<g>
</g>
<g>
</g>
<g>
</g>
<g>
</g>
<g>
</g>
<g>
</g>
<g>
</g>
<g>
</g>
<g>
</g>
<g>
</g>
<g>
</g>
<g>
</g>
</svg>
