<?xml version="1.0" encoding="iso-8859-1"?>
<!-- Generator: Adobe Illustrator 21.0.0, SVG Export Plug-In . SVG Version: 6.00 Build 0)  -->
<svg version="1.1" id="Capa_1" xmlns="http://www.w3.org/2000/svg" xmlns:xlink="http://www.w3.org/1999/xlink" x="0px" y="0px"
	 viewBox="0 0 512.025 512.025" style="enable-background:new 0 0 512.025 512.025;" xml:space="preserve">
<g>
	<path d="M73.574,311.381h364.869c7.555,0,13.701-6.146,13.701-13.701v-193.33c0-7.555-6.146-13.701-13.701-13.701H73.574
		c-7.555,0-13.701,6.146-13.701,13.701v193.33C59.873,305.235,66.02,311.381,73.574,311.381z M74.873,131.511h59.903v75.538H74.873
		V131.511z M280.199,257.828H173.274c-7.465,0-13.538,6.074-13.538,13.539v25.014H96.108l106.962-106.963
		c2.402-2.404,6.316-2.404,8.719,0C220.146,197.774,271.977,249.606,280.199,257.828z M338.744,257.828h-37.332l-6.018-6.018
		l33.642-33.642c2.402-2.404,6.316-2.404,8.719,0l78.213,78.213h-63.686v-25.014C352.282,263.901,346.209,257.828,338.744,257.828z
		 M174.736,296.381v-23.553h162.547v23.553H174.736z M437.145,105.65v10.861h-39.433c-4.143,0-7.5,3.358-7.5,7.5s3.357,7.5,7.5,7.5
		h39.433v164.833l-88.782-88.783c-8.272-8.272-21.66-8.273-29.934,0l-33.641,33.641l-62.391-62.391
		c-8.254-8.253-21.68-8.253-29.934,0c-120.18,120.18-117.49,117.569-117.59,117.569v-74.332h61.669
		c7.298,0,13.234-5.937,13.234-13.234v-77.304h212.936c4.143,0,7.5-3.358,7.5-7.5s-3.357-7.5-7.5-7.5H74.873V105.65H437.145z"/>
	<path d="M511.862,406.587c-0.3-2.513-1.058-4.995-2.279-7.334l-29.714-56.962c-1.694-3.246-4.142-5.924-7.066-7.866
		c2.576-3.951,4.075-8.666,4.075-13.725V77.415c0-13.893-11.303-25.196-25.196-25.196H60.336c-13.894,0-25.196,11.303-25.196,25.196
		v243.284c0,5.059,1.499,9.774,4.075,13.725c-2.925,1.943-5.373,4.62-7.066,7.866L2.435,399.253
		c-1.22,2.339-1.978,4.821-2.279,7.334c-0.211,1.05-0.147-0.973-0.147,28.727c0,13.505,10.987,24.492,24.492,24.492h463.016
		c13.505,0,24.492-10.987,24.492-24.492C512.009,407.831,512.095,407.747,511.862,406.587z M50.14,77.415
		c0-5.622,4.574-10.196,10.196-10.196h391.346c5.622,0,10.196,4.574,10.196,10.196v243.284c0,5.622-4.574,10.196-10.196,10.196
		H60.336c-5.622,0-10.196-4.574-10.196-10.196V77.415z M15.009,435.314v-5.974c1.981,0.601,4.073,0.917,6.222,0.917h176.82v4.423
		c0,3.601,0.762,7.026,2.132,10.125H24.501C19.267,444.806,15.009,440.548,15.009,435.314z M204.164,399.186h103.689l6.142,16.071
		H198.023L204.164,399.186z M223.177,444.806c-5.583,0-10.126-4.542-10.126-10.125v-4.423h85.916v4.423
		c0,5.583-4.543,10.125-10.126,10.125H223.177z M487.517,444.806H311.835c1.37-3.099,2.132-6.525,2.132-10.125v-4.423h85.05
		c4.143,0,7.5-3.358,7.5-7.5s-3.357-7.5-7.5-7.5h-69.765c-0.063-1.537-0.373-3.073-0.937-4.548l-4.404-11.523h133.203
		c7.851,0,13.009-8.225,9.562-15.297l-11.661-23.927c-1.769-3.632-5.522-5.979-9.563-5.979H66.566c-4.04,0-7.794,2.347-9.563,5.977
		l-11.66,23.928c-3.442,7.058,1.693,15.297,9.561,15.297h40.38c4.143,0,7.5-3.358,7.5-7.5s-3.357-7.5-7.5-7.5H61.884l7.408-15.203
		h373.434l7.408,15.203H130.283c-4.143,0-7.5,3.358-7.5,7.5s3.357,7.5,7.5,7.5h57.823l-4.404,11.523
		c-0.564,1.475-0.873,3.011-0.937,4.548H21.231c-4.66,0-7.649-4.941-5.497-9.067l29.714-56.961c1.072-2.056,3.179-3.333,5.497-3.333
		h410.129c2.318,0,4.425,1.277,5.497,3.333l29.714,56.962c2.154,4.13-0.842,9.067-5.497,9.067h-56.771c-4.143,0-7.5,3.358-7.5,7.5
		s3.357,7.5,7.5,7.5h56.771c2.149,0,4.24-0.316,6.222-0.917v5.974C497.009,440.548,492.751,444.806,487.517,444.806z"/>
	<circle cx="245.064" cy="78.374" r="7.5"/>
	<circle cx="266.954" cy="78.374" r="7.5"/>
	<circle cx="191.301" cy="284.604" r="7.5"/>
	<circle cx="217.184" cy="284.604" r="7.5"/>
	<circle cx="243.067" cy="284.604" r="7.5"/>
	<circle cx="268.951" cy="284.604" r="7.5"/>
	<circle cx="294.834" cy="284.604" r="7.5"/>
	<circle cx="320.717" cy="284.604" r="7.5"/>
	<path d="M121.056,137.229H88.594c-4.143,0-7.5,3.358-7.5,7.5s3.357,7.5,7.5,7.5h32.462c4.143,0,7.5-3.358,7.5-7.5
		S125.199,137.229,121.056,137.229z"/>
	<path d="M121.056,161.78H88.594c-4.143,0-7.5,3.358-7.5,7.5s3.357,7.5,7.5,7.5h32.462c4.143,0,7.5-3.358,7.5-7.5
		S125.199,161.78,121.056,161.78z"/>
	<path d="M121.056,186.331H88.594c-4.143,0-7.5,3.358-7.5,7.5s3.357,7.5,7.5,7.5h32.462c4.143,0,7.5-3.358,7.5-7.5
		S125.199,186.331,121.056,186.331z"/>
</g>
<g>
</g>
<g>
</g>
<g>
</g>
<g>
</g>
<g>
</g>
<g>
</g>
<g>
</g>
<g>
</g>
<g>
</g>
<g>
</g>
<g>
</g>
<g>
</g>
<g>
</g>
<g>
</g>
<g>
</g>
</svg>
