<?xml version="1.0" encoding="iso-8859-1"?>
<!-- Generator: Adobe Illustrator 21.0.0, SVG Export Plug-In . SVG Version: 6.00 Build 0)  -->
<svg version="1.1" id="Capa_1" xmlns="http://www.w3.org/2000/svg" xmlns:xlink="http://www.w3.org/1999/xlink" x="0px" y="0px"
	 viewBox="0 0 512 512" style="enable-background:new 0 0 512 512;" xml:space="preserve">
<g>
	<path d="M296.237,112.611v-4.083c0-12.861-10.463-23.324-23.324-23.324H149.539c-4.59,0-8.324-3.734-8.324-8.324
		c0-4.59,3.734-8.325,8.324-8.325h107.518c4.143,0,7.5-3.358,7.5-7.5s-3.357-7.5-7.5-7.5H149.539
		c-12.861,0-23.324,10.463-23.324,23.325c0,12.861,10.463,23.324,23.324,23.324h123.374c4.59,0,8.324,3.734,8.324,8.324v4.083
		c-73.563,3.91-132.209,64.989-132.209,139.509v15.554l-35.735,13.609c-17.788,6.773-29.739,24.113-29.739,43.147v72.534
		c0,41.26,28.401,77.517,69.021,87.006l102.774,24.013c11.003,2.581,21.313,4.017,33.388,4.017
		c33.984,0,66.743-12.355,92.242-34.789c3.11-2.736,3.413-7.475,0.677-10.585c-2.736-3.11-7.476-3.413-10.585-0.677
		C348.313,485.973,319.072,497,288.737,497c-68.765,0-124.709-55.944-124.709-124.709c0-17.458,0-90.648,0-120.171
		c0-68.765,55.944-124.708,124.709-124.708s124.709,55.944,124.709,124.708v120.171c0,24.567-7.142,48.34-20.654,68.747
		c-2.286,3.454-1.34,8.107,2.113,10.394c3.454,2.287,8.107,1.341,10.395-2.113c15.143-22.871,23.146-49.507,23.146-77.028V252.12
		C428.446,177.6,369.8,116.521,296.237,112.611z M199.203,479.461l-43.216-10.097c-33.815-7.901-57.434-37.673-57.434-72.4V324.43
		c0-12.851,8.068-24.557,20.077-29.13l30.397-11.576v10.218c-13.575,3.366-23.667,15.654-23.667,30.255v25.286
		c0,14.673,10.191,27.009,23.866,30.304C151.351,419.75,170.346,455.312,199.203,479.461z M149.028,363.803
		c-5.148-2.708-8.667-8.111-8.667-14.32v-25.286c0-6.209,3.519-11.613,8.667-14.32V363.803z"/>
	<path d="M325.808,294.957l52.878,20.853c12.525,4.937,26.104-4.305,26.104-17.767V252.12c0-63.99-52.034-116.352-116.73-116.051
		c-63.618,0.366-115.375,52.961-115.375,117.245v7.001c0,4.142,3.357,7.5,7.5,7.5s7.5-3.358,7.5-7.5v-7.001
		c0-53.71,41.368-98.064,93.553-101.967v43.647h-1.068c-17.319,0-31.409,14.09-31.409,31.409v50.788
		c0,1.694-1.019,3.191-2.594,3.813l-52.881,20.853c-2.74,1.081-5.601-0.974-5.601-3.813v-2.727c0-4.142-3.357-7.5-7.5-7.5
		s-7.5,3.358-7.5,7.5v2.727c0,13.491,13.619,22.69,26.104,17.767l52.881-20.853c7.345-2.897,12.091-9.871,12.091-17.767v-50.788
		c0-9.048,7.361-16.409,16.409-16.409h17.138c9.048,0,16.408,7.361,16.408,16.409v50.788
		C313.715,285.086,318.461,292.061,325.808,294.957z M297.307,194.994h-1.069V151.34c52.01,3.804,93.553,47.317,93.553,100.78
		v45.923c0,2.84-2.858,4.893-5.602,3.813l-52.879-20.853c-1.576-0.622-2.595-2.118-2.595-3.813v-50.788
		C328.715,209.083,314.625,194.994,297.307,194.994z"/>
	<path d="M281.569,298.812h14.335c6.96,0,12.622-5.662,12.622-12.622v-58.574c0-6.96-5.662-12.622-12.622-12.622h-14.335
		c-6.96,0-12.622,5.662-12.622,12.622v58.574C268.947,293.15,274.609,298.812,281.569,298.812z M283.947,229.994h9.579v53.818
		h-9.579V229.994z"/>
	<path d="M288.737,360.008c13.538,0,24.552-11.014,24.552-24.552s-11.014-24.552-24.552-24.552s-24.552,11.014-24.552,24.552
		S275.199,360.008,288.737,360.008z M288.737,325.904c5.267,0,9.552,4.285,9.552,9.552s-4.285,9.552-9.552,9.552
		s-9.552-4.285-9.552-9.552S283.471,325.904,288.737,325.904z"/>
	<path d="M303.771,36.906h51.309c4.59,0,8.324,3.734,8.324,8.324s-3.734,8.324-8.324,8.324h-63.022c-4.143,0-7.5,3.358-7.5,7.5
		s3.357,7.5,7.5,7.5h63.022c12.861,0,23.324-10.463,23.324-23.324s-10.463-23.324-23.324-23.324h-51.309
		c-4.154,0-7.533-3.379-7.533-7.533V7.5c0-4.142-3.357-7.5-7.5-7.5s-7.5,3.358-7.5,7.5v6.874
		C281.237,26.798,291.346,36.906,303.771,36.906z"/>
</g>
<g>
</g>
<g>
</g>
<g>
</g>
<g>
</g>
<g>
</g>
<g>
</g>
<g>
</g>
<g>
</g>
<g>
</g>
<g>
</g>
<g>
</g>
<g>
</g>
<g>
</g>
<g>
</g>
<g>
</g>
</svg>
