<?xml version="1.0" encoding="iso-8859-1"?>
<!-- Generator: Adobe Illustrator 21.0.0, SVG Export Plug-In . SVG Version: 6.00 Build 0)  -->
<svg version="1.1" id="Capa_1" xmlns="http://www.w3.org/2000/svg" xmlns:xlink="http://www.w3.org/1999/xlink" x="0px" y="0px"
	 viewBox="0 0 512 512" style="enable-background:new 0 0 512 512;" xml:space="preserve">
<g>
	<path d="M232.413,392.376c-10.916,0-19.797,8.881-19.797,19.797s8.881,19.797,19.797,19.797h84.104
		c10.916,0,19.796-8.881,19.796-19.797s-8.881-19.797-19.796-19.797H232.413z M227.616,412.173c0-2.645,2.152-4.797,4.797-4.797H250
		v9.594h-17.587C229.768,416.97,227.616,414.818,227.616,412.173z M265,407.376h18.93v9.594H265V407.376z M321.313,412.173
		c0,2.645-2.152,4.797-4.796,4.797H298.93v-9.594h17.587C319.161,407.376,321.313,409.528,321.313,412.173z"/>
	<path d="M365.604,240.512c4.142,0,7.5-3.358,7.5-7.5V168.78c0-11.692,3.914-23.245,11.021-32.53l22.094-28.863
		c7.195-9.399,0.485-22.974-11.346-22.974H383.74V63.634c0-6.769-5.507-12.275-12.276-12.275h-47.146v-4.643
		c0-10.265-8.351-18.616-18.616-18.616h-11.949V14.862C293.753,6.667,287.086,0,278.891,0h-6.768
		c-8.195,0-14.862,6.667-14.862,14.862V28.1h-11.948c-10.265,0-18.616,8.351-18.616,18.616v4.643h-47.146
		c-6.769,0-12.275,5.507-12.275,12.275v23.503c0,6.213,4.64,11.362,10.636,12.166v9.636h-32.452
		c-23.515,0-42.645,19.13-42.645,42.645v118.646c0,7.165,5.83,12.995,12.995,12.995h2.786c15.443,0,28.008-12.564,28.008-28.008
		v-95.021h31.309c0,18.515,0,111.514,0,124.781c0,16.77,10.766,31.362,26.791,36.31l25.914,8.001
		c1.206,0.373,2.016,1.47,2.016,2.732v6.422c-7.691,1.168-14.057,7.055-15.653,14.852l-3.06,14.945h-8.914
		c-6.145,0-11.587,4.134-13.235,10.054l-17.49,62.815h-2.969c-8.781,0-15.925,7.144-15.925,15.926v20.484
		c0,8.782,7.144,15.926,15.925,15.926h1.166v5.148c0,7.394,6.015,13.408,13.408,13.408h14.966c7.393,0,13.408-6.015,13.408-13.408
		v-5.148h120.416v5.148c0,7.394,6.015,13.408,13.408,13.408h14.966c7.393,0,13.408-6.015,13.408-13.408v-5.148h1.166
		c8.781,0,15.925-7.144,15.925-15.926v-20.484c0-8.782-7.144-15.926-15.925-15.926h-2.969l-17.49-62.815
		c-1.648-5.919-7.091-10.054-13.236-10.054h-8.913l-3.06-14.945c-1.45-7.08-6.832-12.586-13.568-14.413v-6.862
		c0-1.262,0.81-2.359,2.015-2.732l25.916-8.001c16.023-4.948,26.79-19.539,26.79-36.31v-16.964c0-4.142-3.358-7.5-7.5-7.5
		s-7.5,3.358-7.5,7.5v16.964c0,10.15-6.517,18.982-16.215,21.978l-25.916,8.001c-7.53,2.325-12.59,9.183-12.59,17.064v6.21h-55.752
		v-6.21c0-7.881-5.06-14.739-12.59-17.064l-25.915-8.001c-9.699-2.995-16.216-11.827-16.216-21.978V275.9h17.177
		c4.142,0,7.5-3.358,7.5-7.5s-3.358-7.5-7.5-7.5h-17.177v-17.038h17.177c4.142,0,7.5-3.358,7.5-7.5s-3.358-7.5-7.5-7.5h-17.177
		v-17.038h17.177c4.142,0,7.5-3.358,7.5-7.5s-3.358-7.5-7.5-7.5h-17.177v-17.502c4.182,1.661,9.327,2.86,16.067,2.86
		c13.112,0,20.189-4.54,25.876-8.187c5.063-3.248,9.063-5.813,17.778-5.813c1.71,0,3.238,0.099,4.629,0.283v18.829
		c0,4.142,3.358,7.5,7.5,7.5s7.5-3.358,7.5-7.5v-12.121c1.922,1.203,4.036,2.439,6.491,3.531v41.089
		c0,5.672,1.419,11.312,4.104,16.308l3.128,5.823c0.542,1.007,0.828,2.145,0.828,3.288V269.9h-22.609v-24.688
		c0-1.144,0.286-2.281,0.827-3.288l3.128-5.822c1.943-3.617,3.223-7.569,3.782-11.628c0.209-0.69,0.322-1.421,0.322-2.18v-2.501
		c0-4.142-3.358-7.5-7.5-7.5s-7.5,3.358-7.5,7.5c0,3.203-0.801,6.388-2.317,9.209l-3.128,5.822
		c-1.709,3.182-2.613,6.774-2.613,10.387v25.229c0,7.973,6.486,14.459,14.458,14.459h23.691c7.973,0,14.459-6.486,14.459-14.459
		v-25.229c0-3.613-0.904-7.205-2.614-10.387l-3.128-5.823c-1.516-2.821-2.317-6.006-2.317-9.209v-37.669
		c0.819,0.038,1.662,0.059,2.533,0.059c13.113,0,20.191-4.54,25.878-8.187c5.064-3.248,9.064-5.813,17.781-5.813
		c8.719,0,12.721,2.566,17.788,5.814c0.123,0.079,0.247,0.158,0.371,0.238v58.778C358.104,237.154,361.462,240.512,365.604,240.512z
		 M199.257,497h-11.782v-3.556h11.782V497z M361.455,497h-11.782v-3.556h11.782V497z M359.081,441.108h-12.228
		c-4.142,0-7.5,3.358-7.5,7.5s3.358,7.5,7.5,7.5h30.768c0.51,0,0.925,0.416,0.925,0.926v20.484c0,0.51-0.415,0.926-0.925,0.926
		H171.309c-0.51,0-0.925-0.416-0.925-0.926v-20.484c0-0.51,0.415-0.926,0.925-0.926h140.544c4.142,0,7.5-3.358,7.5-7.5
		s-3.358-7.5-7.5-7.5H189.849l16.113-57.869h137.006L359.081,441.108z M313.491,353.229c1.817,0,3.401,1.292,3.766,3.073
		l2.444,11.937h-90.472l2.444-11.937c0.364-1.781,1.948-3.073,3.766-3.073H313.491z M194.39,108.938
		c-0.815,0-1.479-0.663-1.479-1.479v-8.047h165.192v8.047c0,0.815-0.663,1.479-1.479,1.479H194.39z M272.262,15h6.491v13.1h-6.491
		V15z M241.697,46.716c0-1.994,1.622-3.616,3.616-3.616h60.388c1.994,0,3.616,1.622,3.616,3.616v4.643h-67.621V46.716z
		 M182.276,66.359H368.74v18.054H182.276V66.359z M144.666,145.195c-7.203,0-13.063,5.86-13.063,13.063v96.958
		c0,7.172-5.835,13.008-13.008,13.008h-0.78V151.583c0-15.244,12.401-27.645,27.645-27.645h32.452v21.256H144.666z M226.756,161.369
		c-5.063,3.248-9.063,5.813-17.778,5.813c-7.714,0-11.734-2.01-16.067-4.723v-38.586c1.052,0.094-3.25,0.066,64.351,0.066v29.445
		c-1.455-0.13-2.995-0.201-4.629-0.201C239.521,153.182,232.443,157.722,226.756,161.369z M272.262,157.664v-33.726h6.491v37.588
		C276.574,160.126,274.585,158.855,272.262,157.664z M339.945,153.182c-13.113,0-20.191,4.54-25.878,8.187
		c-5.064,3.248-9.064,5.813-17.781,5.813c-0.892,0-1.733-0.027-2.533-0.079v-43.165h62.872c9.086,0,16.479-7.392,16.479-16.479
		v-8.047h20.329l-21.219,27.72c-6.778,8.855-11.287,19.322-13.147,30.273C354.379,155.079,348.423,153.182,339.945,153.182z"/>
</g>
<g>
</g>
<g>
</g>
<g>
</g>
<g>
</g>
<g>
</g>
<g>
</g>
<g>
</g>
<g>
</g>
<g>
</g>
<g>
</g>
<g>
</g>
<g>
</g>
<g>
</g>
<g>
</g>
<g>
</g>
</svg>
