<?xml version="1.0" encoding="iso-8859-1"?>
<!-- Generator: Adobe Illustrator 21.0.0, SVG Export Plug-In . SVG Version: 6.00 Build 0)  -->
<svg version="1.1" id="Capa_1" xmlns="http://www.w3.org/2000/svg" xmlns:xlink="http://www.w3.org/1999/xlink" x="0px" y="0px"
	 viewBox="0 0 511.976 511.976" style="enable-background:new 0 0 511.976 511.976;" xml:space="preserve">
<g>
	<path d="M74.955,294.036c-19.434,0-35.245,15.811-35.245,35.246c0,19.434,15.811,35.245,35.245,35.245
		c19.424,0,35.246-15.757,35.246-35.245C110.201,309.847,94.39,294.036,74.955,294.036z M54.71,329.282
		c0-11.164,9.082-20.246,20.245-20.246c11.164,0,20.246,9.082,20.246,20.246c0,2.837-0.587,5.54-1.646,7.993l-5.668-5.668
		c-2.929-2.93-7.678-2.929-10.606,0c-2.929,2.929-2.929,7.677,0,10.606l5.668,5.668c-2.453,1.058-5.156,1.645-7.994,1.645
		C63.792,349.527,54.71,340.445,54.71,329.282z"/>
	<path d="M57.46,285.825c10.765,0,19.523-8.758,19.523-19.523s-8.758-19.523-19.523-19.523s-19.523,8.758-19.523,19.523
		S46.695,285.825,57.46,285.825z M57.46,261.779c2.494,0,4.523,2.029,4.523,4.523s-2.029,4.523-4.523,4.523
		s-4.523-2.029-4.523-4.523S54.966,261.779,57.46,261.779z"/>
	<path d="M57.46,238.568c10.765,0,19.523-8.758,19.523-19.523s-8.758-19.523-19.523-19.523s-19.523,8.758-19.523,19.523
		S46.695,238.568,57.46,238.568z M57.46,214.522c2.494,0,4.523,2.029,4.523,4.523s-2.029,4.523-4.523,4.523
		s-4.523-2.029-4.523-4.523S54.966,214.522,57.46,214.522z"/>
	<path d="M104.474,211.545h-12.17c-4.142,0-7.5,3.358-7.5,7.5s3.358,7.5,7.5,7.5h12.17c4.142,0,7.5-3.358,7.5-7.5
		S108.616,211.545,104.474,211.545z"/>
	<path d="M104.474,258.802h-12.17c-4.142,0-7.5,3.358-7.5,7.5s3.358,7.5,7.5,7.5h12.17c4.142,0,7.5-3.358,7.5-7.5
		S108.616,258.802,104.474,258.802z"/>
	<path d="M496.968,193.471c0.102,0-1.356-0.179-31.932-4.226c-1.165-16.783-0.761-11.088-0.854-12.301
		c-2.022-28.764-26.145-50.959-54.628-50.959h-6.035v-19.405c0-3.405,1.691-6.644,4.64-8.885c9.063-6.888,14.26-17.359,14.26-28.73
		c0-19.892-16.183-36.075-36.075-36.075h-137.25c-3.291,0-6.535,0.443-9.677,1.318c-3.08-0.858-6.324-1.318-9.673-1.318h-89.285
		c-4.142,0-7.5,3.358-7.5,7.5s3.358,7.5,7.5,7.5h89.285c11.621,0,21.075,9.454,21.075,21.075c0,6.642-3.039,12.761-8.336,16.788
		c-6.713,5.103-10.564,12.694-10.564,20.827v19.405h-29.357l9.098-33.953c1.072-4.001-1.302-8.113-5.303-9.186
		c-3.997-1.068-8.114,1.302-9.186,5.303l-10.138,37.835h-21.953l9.097-33.953c1.072-4.001-1.303-8.113-5.304-9.186
		c-3.996-1.071-8.113,1.302-9.186,5.304l-10.137,37.834h-21.953l9.097-33.953c1.072-4.001-1.303-8.113-5.304-9.186
		c-3.995-1.071-8.113,1.302-9.186,5.304l-10.137,37.834H90.318v-19.405c0-8.133-3.85-15.724-10.563-20.827
		c-5.298-4.027-8.337-10.146-8.337-16.788c0-11.621,9.454-21.075,21.075-21.075h12.965c4.142,0,7.5-3.358,7.5-7.5
		s-3.358-7.5-7.5-7.5H92.493c-19.892,0-36.075,16.183-36.075,36.075c0,11.37,5.198,21.841,14.26,28.729
		c2.949,2.242,4.64,5.48,4.64,8.885v19.405h-6.035c-27.957,0-52.397,21.501-54.629,50.968
		C11.431,223.387,0.148,385.939,0.14,386.053c-2.098,30.206,19.592,55.15,48.07,58.599l3.239,21.828
		c1.066,7.186,7.348,12.605,14.613,12.605h17.786c7.265,0,13.547-5.419,14.613-12.604l3.18-21.434h6.699c4.142,0,7.5-3.358,7.5-7.5
		s-3.358-7.5-7.5-7.5H54.739c-21.212,0-37.782-16.337-39.594-35.971h448.547c-1.81,19.611-18.361,35.971-39.594,35.971H143.341
		c-4.142,0-7.5,3.358-7.5,7.5s3.358,7.5,7.5,7.5h233.854l3.18,21.435c1.066,7.185,7.349,12.604,14.613,12.604h17.786
		c7.265,0,13.547-5.419,14.613-12.604l3.239-21.828c29.31-3.549,50.096-29.411,48.101-58.158l-10.077-145.162l28.316-3.748
		c8.556-1.132,15.009-8.495,15.009-17.126v-9.861C511.976,201.967,505.524,194.604,496.968,193.471z M86.478,445.047l-2.825,19.038
		H66.259l-2.825-19.038H86.478z M412.578,464.085h-17.395l-2.825-19.038h23.044L412.578,464.085z M251.559,97.696
		c15.902-12.088,18.695-34.231,7.447-49.805h127.338c11.621,0,21.075,9.454,21.075,21.075c0,6.643-3.039,12.761-8.336,16.788
		c-6.713,5.103-10.563,12.694-10.563,20.827v19.405h-29.357l9.098-33.953c1.072-4.001-1.302-8.113-5.303-9.186
		c-3.998-1.068-8.114,1.302-9.186,5.303l-10.138,37.835h-21.953l9.098-33.953c1.072-4.001-1.302-8.113-5.303-9.186
		c-4-1.068-8.113,1.302-9.186,5.303l-10.138,37.835h-21.953l9.097-33.953c1.072-4.001-1.303-8.113-5.304-9.186
		c-3.995-1.071-8.113,1.302-9.186,5.304l-10.137,37.834h-21.749v-19.405C246.918,103.175,248.61,99.937,251.559,97.696z
		 M69.283,140.986c31.551,0,279.777,0,279.947,0c0.111,0.003,0.206,0.003,0.328,0h59.995c18.033,0,33.526,12.216,38.27,28.987
		h-60.169c-4.142,0-7.5,3.358-7.5,7.5s3.358,7.5,7.5,7.5h62.049c1.517,21.853,12.263,176.658,13.474,194.103H15.661l13.473-194.103
		h323.52c4.142,0,7.5-3.358,7.5-7.5s-3.358-7.5-7.5-7.5H31.014C35.757,153.202,51.251,140.986,69.283,140.986z M496.976,220.459
		c0,1.137-0.85,2.106-1.977,2.256l-27.389,3.625c-0.758-10.924-0.7-10.089-1.515-21.823l28.904,3.825
		c1.127,0.149,1.977,1.119,1.977,2.256V220.459z"/>
	<path d="M406.674,215.35h19.975c4.142,0,7.5-3.358,7.5-7.5s-3.358-7.5-7.5-7.5h-19.975c-4.142,0-7.5,3.358-7.5,7.5
		S402.531,215.35,406.674,215.35z"/>
	<path d="M406.674,252.437h19.975c4.142,0,7.5-3.358,7.5-7.5s-3.358-7.5-7.5-7.5h-19.975c-4.142,0-7.5,3.358-7.5,7.5
		S402.531,252.437,406.674,252.437z"/>
	<path d="M406.674,289.525h19.975c4.142,0,7.5-3.358,7.5-7.5s-3.358-7.5-7.5-7.5h-19.975c-4.142,0-7.5,3.358-7.5,7.5
		S402.531,289.525,406.674,289.525z"/>
	<path d="M406.674,326.612h19.975c4.142,0,7.5-3.358,7.5-7.5s-3.358-7.5-7.5-7.5h-19.975c-4.142,0-7.5,3.358-7.5,7.5
		S402.531,326.612,406.674,326.612z"/>
	<path d="M406.674,363.699h19.975c4.142,0,7.5-3.358,7.5-7.5s-3.358-7.5-7.5-7.5h-19.975c-4.142,0-7.5,3.358-7.5,7.5
		S402.531,363.699,406.674,363.699z"/>
</g>
<g>
</g>
<g>
</g>
<g>
</g>
<g>
</g>
<g>
</g>
<g>
</g>
<g>
</g>
<g>
</g>
<g>
</g>
<g>
</g>
<g>
</g>
<g>
</g>
<g>
</g>
<g>
</g>
<g>
</g>
</svg>
