<?xml version="1.0" encoding="iso-8859-1"?>
<!-- Generator: Adobe Illustrator 21.0.0, SVG Export Plug-In . SVG Version: 6.00 Build 0)  -->
<svg version="1.1" id="Capa_1" xmlns="http://www.w3.org/2000/svg" xmlns:xlink="http://www.w3.org/1999/xlink" x="0px" y="0px"
	 viewBox="0 0 512 512" style="enable-background:new 0 0 512 512;" xml:space="preserve">
<g>
	<path d="M427.379,74.306h-53.014c-7.228-8.674-18.049-13.95-29.891-13.95H338.5l-12.089-28.585
		c-3.919-9.301-12.974-15.312-23.066-15.312h-52.568c-10.096,0-19.151,6.012-23.081,15.347l-11.875,28.55h-6.173
		c-11.842,0-22.663,5.277-29.891,13.95h-35.116c-46.66,0-84.621,37.961-84.621,84.621c0,86.314,0.093,69.941,0.093,275.211H13.959
		C6.262,434.138,0,440.4,0,448.098v33.484c0,7.697,6.262,13.959,13.959,13.959h145.121c17.313,0,31.398-14.085,31.398-31.398
		c0-6.317-1.876-12.204-5.099-17.134c5.071-1.465,9.281-5.002,11.608-9.722h160.146c2.324,4.715,6.532,8.256,11.608,9.722
		c-3.223,4.93-5.099,10.817-5.099,17.134c0,17.313,14.085,31.398,31.398,31.398s31.398-14.085,31.398-31.398
		c0-6.317-1.875-12.204-5.099-17.135c9.005-2.602,14.721-11.48,13.33-20.776l-6.755-45.192c-1.362-9.104-9.33-15.97-18.535-15.97
		h-6.84v-8.544h2.244c4.143,0,7.5-3.358,7.5-7.5s-3.357-7.5-7.5-7.5h-2.244v-16.148h2.244c4.143,0,7.5-3.358,7.5-7.5
		s-3.357-7.5-7.5-7.5h-2.244v-26.464h9.437c11.59,0,21.176-8.743,22.51-19.98C477.834,260.312,512,223.876,512,179.609v-20.682
		C512,112.267,474.039,74.306,427.379,74.306z M412.692,193.465h-10.151v-0.915c4.17-2.465,6.973-7.008,6.973-12.193v-8.394
		c0-5.052-2.661-9.494-6.654-12v-18.34c0-5.279-3.202-9.823-7.765-11.794l-2.504-7.84h34.788c20.368,0,36.939,16.571,36.939,36.939
		v20.682c0,17.881-12.772,32.835-29.672,36.22v-0.411C434.646,203.313,424.798,193.465,412.692,193.465z M149.336,325.378h2.244
		v16.148h-2.244c-4.142,0-7.5,3.358-7.5,7.5s3.358,7.5,7.5,7.5h2.244v8.544h-6.84c-9.205,0-17.174,6.866-18.535,15.97l-6.755,45.191
		c-0.4,2.675-0.213,5.367,0.51,7.906h-12.352v-97.371c0-4.142-3.358-7.5-7.5-7.5s-7.5,3.358-7.5,7.5v35.907H75.113V247.296h17.495
		v54.471c0,4.142,3.358,7.5,7.5,7.5s7.5-3.358,7.5-7.5v-60.986c0.143-0.904,0.093,4.146,0.093-81.854
		c0-20.368,16.571-36.939,36.939-36.939h16.89l-2.504,7.841c-4.563,1.971-7.765,6.516-7.765,11.794v18.34
		c-3.994,2.505-6.654,6.947-6.654,12v8.394c0,5.185,2.803,9.729,6.973,12.194v117.829h-2.244c-4.142,0-7.5,3.358-7.5,7.5
		S145.194,325.378,149.336,325.378z M356,422.287H198.121l-5.174-34.612h168.226L356,422.287z M176.95,382.576
		c0.192,0.57-0.326-2.637,6.926,45.874c0.336,2.258-1.406,4.294-3.7,4.294h-42.19c-2.286,0-4.038-2.029-3.7-4.294l6.755-45.191
		c0.272-1.818,1.863-3.188,3.7-3.188h28.68C175.019,380.071,176.431,381.109,176.95,382.576z M159.607,172.808h234.906v6.702
		H159.607V172.808z M255.467,157.808l5.305-9.483h32.578l5.305,9.483H255.467z M241.534,37.596c1.569-3.728,5.198-6.137,9.243-6.137
		h52.568c4.045,0,7.673,2.409,9.248,6.145l9.622,22.752h-8.986l-6.764-16.066c-1.171-2.781-3.895-4.59-6.912-4.59h-44.983
		c-3.018,0-5.741,1.809-6.912,4.59l-6.764,16.066h-8.826L241.534,37.596z M296.954,60.356h-39.786l2.381-5.656h35.023
		L296.954,60.356z M209.648,75.356c56.431,0,77.309,0,134.826,0c10.456,0,19.618,6.692,22.799,16.653l11.742,36.774h-44.277
		l-7.446-11.944c-3.471-5.565-9.457-8.887-16.015-8.887h-7.023c-4.143,0-7.5,3.358-7.5,7.5s3.357,7.5,7.5,7.5h7.023
		c1.346,0,2.574,0.682,3.286,1.823l9.648,15.476c1.369,2.197,3.775,3.532,6.364,3.532h57.284v14.025h-72.018l-10.078-18.018
		c-2.229-3.988-6.453-6.465-11.022-6.465H259.38c-4.568,0-8.791,2.477-11.021,6.464l-10.078,18.02h-72.018v-14.025h57.284
		c2.589,0,4.995-1.335,6.364-3.532l9.649-15.476c0.712-1.142,1.94-1.824,3.286-1.824h26.408c4.143,0,7.5-3.358,7.5-7.5
		s-3.357-7.5-7.5-7.5h-26.408c-6.558,0-12.544,3.322-16.015,8.887l-7.447,11.944h-44.277l11.742-36.774
		C190.03,82.048,199.192,75.356,209.648,75.356z M144.641,89.306h27.326l-5.646,17.682h-21.679c-28.64,0-51.939,23.3-51.939,51.939
		v73.369H75.02v-73.369C75.02,120.538,106.251,89.306,144.641,89.306z M15,449.138h46.944c7.261,0,13.168-5.907,13.168-13.168
		v-48.295h17.495v48.295c0,7.261,5.907,13.168,13.168,13.168h25.729c-5.301,9.704-5.147,21.717,0.809,31.403H15V449.138z
		 M159.081,480.541c-9.042,0-16.398-7.356-16.398-16.398s7.356-16.398,16.398-16.398s16.398,7.356,16.398,16.398
		S168.123,480.541,159.081,480.541z M395.041,480.541c-9.042,0-16.398-7.356-16.398-16.398s7.356-16.398,16.398-16.398
		s16.398,7.356,16.398,16.398S404.083,480.541,395.041,480.541z M413.08,383.259l6.756,45.192c0.337,2.261-1.411,4.293-3.7,4.293
		h-42.19c-2.174,0-3.905-1.844-3.728-4.05c0.018-0.2-0.448,2.944,6.783-45.434c0.27-1.805,1.85-3.188,3.7-3.188h28.68
		C411.218,380.071,412.809,381.441,413.08,383.259z M387.541,365.071h-6.84c-6.059,0-11.581,2.974-15.038,7.604H188.458
		c-3.456-4.629-8.979-7.604-15.038-7.604h-6.84v-8.544h220.96V365.071z M216.419,325.378h171.122v16.148h-220.96v-16.148h14.838
		c4.142,0,7.5-3.358,7.5-7.5s-3.358-7.5-7.5-7.5h-14.838V194.51h220.96v115.868H216.419c-4.142,0-7.5,3.358-7.5,7.5
		S212.277,325.378,216.419,325.378z M419.646,261.246c0,4.229-3.44,7.668-7.669,7.668h-9.437v-60.449h10.151
		c3.835,0,6.954,3.12,6.954,6.954V261.246z M497,179.609c0,35.856-27.245,65.468-62.121,69.22v-17.821
		c25.098-3.646,44.439-25.307,44.439-51.399v-20.682c0-28.639-23.3-51.939-51.939-51.939h-39.578l-5.646-17.682h45.224
		c38.39,0,69.621,31.232,69.621,69.621V179.609z"/>
	<path d="M270.069,268.382h13.982c12.518,0,22.701-10.184,22.701-22.702v-13.982c0-12.518-10.184-22.702-22.701-22.702h-13.982
		c-12.518,0-22.702,10.184-22.702,22.702v13.982C247.368,258.198,257.552,268.382,270.069,268.382z M262.367,231.699
		c0-4.247,3.455-7.702,7.702-7.702h13.982c4.246,0,7.701,3.455,7.701,7.702v13.982c0,4.247-3.455,7.702-7.701,7.702h-13.982
		c-4.247,0-7.702-3.455-7.702-7.702V231.699z"/>
</g>
<g>
</g>
<g>
</g>
<g>
</g>
<g>
</g>
<g>
</g>
<g>
</g>
<g>
</g>
<g>
</g>
<g>
</g>
<g>
</g>
<g>
</g>
<g>
</g>
<g>
</g>
<g>
</g>
<g>
</g>
</svg>
