<?xml version="1.0" encoding="iso-8859-1"?>
<!-- Generator: Adobe Illustrator 21.0.0, SVG Export Plug-In . SVG Version: 6.00 Build 0)  -->
<svg version="1.1" id="Capa_1" xmlns="http://www.w3.org/2000/svg" xmlns:xlink="http://www.w3.org/1999/xlink" x="0px" y="0px"
	 viewBox="0 0 512 512" style="enable-background:new 0 0 512 512;" xml:space="preserve">
<g>
	<path d="M166.155,222.873c3.051-3.048,4.73-7.103,4.73-11.417v-7.215h0.38c5.629,0,10.209-4.58,10.209-10.208v-15.76
		c0-5.629-4.58-10.208-10.209-10.208h-15.76c-5.629,0-10.208,4.58-10.208,10.208v15.76c0,5.629,4.579,10.208,10.208,10.208h0.38
		v7.215c0,0.306-0.118,0.592-0.336,0.809l-16.067,16.068v-62.4h10.32c5.818,0,9.424-6.36,6.435-11.353l-17.82-29.766
		c-2.899-4.844-9.952-4.874-12.869,0l-17.821,29.766c-2.989,4.991,0.616,11.353,6.435,11.353h10.321v83.577l-16.068-16.068
		c-0.217-0.216-0.336-0.504-0.336-0.81v-8.844c6.242-2.855,10.589-9.159,10.589-16.459c0-9.974-8.114-18.088-18.089-18.088
		c-9.974,0-18.088,8.114-18.088,18.088c0,7.3,4.347,13.604,10.588,16.459v8.844c0,4.313,1.68,8.367,4.729,11.416l26.676,26.675
		v11.021c-8.101,3.044-13.881,10.871-13.881,20.022c0,11.789,9.592,21.38,21.381,21.38s21.38-9.591,21.38-21.38
		c0-9.151-5.779-16.978-13.88-20.022v-32.198L166.155,222.873z M160.298,183.064h6.177v6.177h-6.177V183.064z M131.982,143.268
		l4.589,7.665h-9.179L131.982,143.268z M100.578,204.241c1.703,0,3.089,1.385,3.089,3.088s-1.386,3.088-3.089,3.088
		s-3.088-1.385-3.088-3.088S98.875,204.241,100.578,204.241z M131.982,308.148c-3.519,0-6.381-2.862-6.381-6.38
		s2.862-6.38,6.381-6.38c3.518,0,6.38,2.862,6.38,6.38S135.5,308.148,131.982,308.148z"/>
	<path d="M115.602,24.837H95.44c-6.358,0-11.531,5.173-11.531,11.531V56.53c0,6.358,5.173,11.531,11.531,11.531h20.161
		c6.358,0,11.531-5.173,11.531-11.531V36.369C127.133,30.01,121.96,24.837,115.602,24.837z M112.133,53.061H98.909V39.837h13.224
		V53.061z"/>
	<path d="M168.524,68.061c6.358,0,11.531-5.173,11.531-11.531V36.369c0-6.358-5.173-11.531-11.531-11.531h-20.161
		c-6.358,0-11.531,5.173-11.531,11.531V56.53c0,6.358,5.173,11.531,11.531,11.531H168.524z M151.832,39.837h13.224v13.224h-13.224
		V39.837z"/>
	<path d="M361.262,0c-57.755,0-104.741,46.987-104.741,104.742v302.516c0,26.529-21.583,48.111-48.112,48.111
		c-26.528,0-48.11-21.583-48.11-48.111v-2.3c7.073-0.955,12.544-7.031,12.544-14.362v-46.13
		c25.284-2.406,45.127-23.761,45.127-49.665V165.965c0-4.142-3.357-7.5-7.5-7.5s-7.5,3.358-7.5,7.5V294.8
		c0,19.239-15.652,34.891-34.892,34.891h-72.19c-19.238,0-34.891-15.652-34.891-34.891V114.624h141.973v16.341
		c0,4.142,3.357,7.5,7.5,7.5s7.5-3.358,7.5-7.5v-19.459c0-4.962-3.058-9.223-7.389-10.999V11.882C210.58,5.33,205.25,0,198.698,0
		H65.266c-6.552,0-11.882,5.33-11.882,11.882v45.75c0,4.142,3.357,7.5,7.5,7.5s7.5-3.358,7.5-7.5V15H195.58v84.624H68.384v-6.992
		c0-4.142-3.357-7.5-7.5-7.5s-7.5,3.358-7.5,7.5v7.876c-4.33,1.776-7.388,6.036-7.388,10.998V294.8
		c0,25.903,19.843,47.258,45.126,49.665v46.13c0,7.331,5.472,13.408,12.545,14.362v2.3c0,57.755,46.987,104.742,104.742,104.742
		S313.15,465.013,313.15,407.258V367.39c0-4.142-3.357-7.5-7.5-7.5s-7.5,3.358-7.5,7.5v39.868c0,49.484-40.258,89.742-89.742,89.742
		c-49.483,0-89.741-40.258-89.741-89.742v-2.169h26.631v2.169c0,34.8,28.312,63.111,63.111,63.111s63.111-28.312,63.111-63.111
		V104.742c0-49.484,40.258-89.742,89.741-89.742c49.484,0,89.742,40.258,89.742,89.742V497h-26.631V104.742
		c0-34.8-28.312-63.111-63.111-63.111s-63.111,28.312-63.111,63.111V332.39c0,4.142,3.357,7.5,7.5,7.5s7.5-3.358,7.5-7.5V104.742
		c0-26.529,21.583-48.111,48.111-48.111s48.111,21.583,48.111,48.111v394.185c0,7.208,5.864,13.073,13.073,13.073h30.485
		c7.208,0,13.072-5.864,13.072-13.073V104.742C466.004,46.987,419.017,0,361.262,0z M106.122,390.088v-4.55h10.729
		c4.143,0,7.5-3.358,7.5-7.5s-3.357-7.5-7.5-7.5h-10.729v-6.297h10.729c4.143,0,7.5-3.358,7.5-7.5s-3.357-7.5-7.5-7.5h-10.729v-4.55
		h51.72v4.55h-10.729c-4.143,0-7.5,3.358-7.5,7.5s3.357,7.5,7.5,7.5h10.729v6.297h-10.729c-4.143,0-7.5,3.358-7.5,7.5
		s3.357,7.5,7.5,7.5h10.729v4.55H106.122z"/>
	<path d="M115.011,86.67c0,4.142,3.357,7.5,7.5,7.5s7.5-3.358,7.5-7.5c0-1.086,0.885-1.971,1.972-1.971s1.971,0.884,1.971,1.971
		c0,4.142,3.357,7.5,7.5,7.5s7.5-3.358,7.5-7.5c0-9.358-7.613-16.971-16.971-16.971C122.624,69.7,115.011,77.313,115.011,86.67z"/>
</g>
<g>
</g>
<g>
</g>
<g>
</g>
<g>
</g>
<g>
</g>
<g>
</g>
<g>
</g>
<g>
</g>
<g>
</g>
<g>
</g>
<g>
</g>
<g>
</g>
<g>
</g>
<g>
</g>
<g>
</g>
</svg>
