<?xml version="1.0" encoding="iso-8859-1"?>
<!-- Generator: Adobe Illustrator 21.0.0, SVG Export Plug-In . SVG Version: 6.00 Build 0)  -->
<svg version="1.1" id="Capa_1" xmlns="http://www.w3.org/2000/svg" xmlns:xlink="http://www.w3.org/1999/xlink" x="0px" y="0px"
	 viewBox="0 0 511.982 511.982" style="enable-background:new 0 0 511.982 511.982;" xml:space="preserve">
<g>
	<path d="M450.054,82.944h-32.385c-5.162-11.435-11.79-22.177-19.747-31.994c-3.469-4.28-8.498-6.903-13.989-7.351
		C358.143,15.85,321.902,0,283.97,0c-37.932,0-74.174,15.85-99.963,43.6c-5.491,0.448-10.519,3.071-13.988,7.351
		c-8.077,9.964-14.786,20.884-19.981,32.514c-5.749,1.426-10.552,5.68-12.589,11.469c-1.661,4.72-3.089,9.506-4.281,14.346
		c-54.148,14.213-93.428,63.4-93.428,121.147c0,55.533,36.282,104.014,88.937,119.887v15.599c-2.084,1.984-3.385,4.784-3.385,7.881
		v64.057c0,22.8,16.948,41.716,38.909,44.812l3.293,18.238c1.16,6.421,6.739,11.083,13.264,11.083h19.565
		c6.524,0,12.104-4.661,13.265-11.084l3.213-17.792H351.14l3.213,17.794c1.16,6.421,6.739,11.083,13.265,11.083h19.564
		c6.527,0,12.105-4.662,13.265-11.084l3.293-18.236c21.96-3.095,38.908-22.011,38.908-44.812v-64.057
		c0-3.098-1.301-5.897-3.385-7.881V183.151c0-6.095,1.487-12.174,4.301-17.58l26.146-50.241
		C477.393,100.563,466.666,82.944,450.054,82.944z M362.143,43.531H205.796C251.032,5.489,316.938,5.515,362.143,43.531z
		 M128.676,295.733c-23.372-13.065-38.447-38.089-38.447-65.307c0-27.218,15.075-52.242,38.447-65.307V295.733z M54.739,230.426
		c0-47.45,31.057-89.734,75.296-104.568c-1.117,8.403-1.359,14.898-1.359,22.506c-32.175,14.291-53.447,46.627-53.447,82.062
		s21.272,67.77,53.447,82.061v22.061C84.69,319.287,54.739,277.768,54.739,230.426z M199.051,496.982h-17.022l-2.506-13.876h22.034
		L199.051,496.982z M385.911,496.982h-17.022l-2.506-13.876h22.035L385.911,496.982z M397.393,468.105H170.547
		c-16.684,0-30.256-13.572-30.256-30.255v-18.736h232.137c4.143,0,7.5-3.358,7.5-7.5s-3.357-7.5-7.5-7.5H140.291v-26.205h287.357
		v26.205h-20.221c-4.143,0-7.5,3.358-7.5,7.5s3.357,7.5,7.5,7.5h20.221v18.736C427.648,454.533,414.076,468.105,397.393,468.105z
		 M456.403,108.406l-26.146,50.241c-3.921,7.536-5.994,16.009-5.994,24.505v179.757H143.676V146.478
		c0-15.963,2.665-31.63,7.922-46.565c0.414-1.178,1.497-1.969,2.694-1.969c1.141,0,0.923,0.003,1.062,0h35.179
		c4.143,0,7.5-3.358,7.5-7.5s-3.357-7.5-7.5-7.5h-23.607c4.114-7.972,9.051-15.523,14.745-22.547
		c0.947-1.168,2.452-1.866,4.025-1.866h196.547c1.598,0,3.065,0.68,4.026,1.865c5.694,7.025,10.63,14.576,14.744,22.548H225.532
		c-4.143,0-7.5,3.358-7.5,7.5s3.357,7.5,7.5,7.5h224.521c3.637,0,5.491,2.409,6.119,3.444
		C456.802,102.424,458.082,105.181,456.403,108.406z"/>
	<path d="M204.266,119.91c-17.948,0-32.551,14.602-32.551,32.551v88.589c0,4.142,3.357,7.5,7.5,7.5s7.5-3.358,7.5-7.5v-3.124h35.102
		v36.508h-35.276c-0.739-3.366-3.737-5.885-7.325-5.885c-4.143,0-7.5,3.358-7.5,7.5v32.342c0,17.949,14.603,32.551,32.551,32.551
		s32.551-14.602,32.551-32.551V152.46C236.817,134.512,222.215,119.91,204.266,119.91z M204.266,134.91
		c9.678,0,17.551,7.873,17.551,17.551v18.958h-35.102V152.46C186.716,142.783,194.589,134.91,204.266,134.91z M186.716,222.926
		v-36.508h35.102v36.508H186.716z M204.266,325.942c-9.678,0-17.551-7.873-17.551-17.551v-18.957h35.102v18.957
		C221.817,318.069,213.944,325.942,204.266,325.942z"/>
	<path d="M372.428,287.243c-14.805,0-26.85,12.045-26.85,26.85c0,14.805,12.045,26.85,26.85,26.85
		c14.806,0,26.851-12.045,26.851-26.85C399.278,299.288,387.233,287.243,372.428,287.243z M372.428,325.942
		c-6.534,0-11.85-5.316-11.85-11.85c0-6.534,5.315-11.85,11.85-11.85s11.851,5.316,11.851,11.85
		C384.278,320.626,378.962,325.942,372.428,325.942z"/>
	<path d="M372.428,222.351c-14.805,0-26.85,12.045-26.85,26.85s12.045,26.85,26.85,26.85c14.806,0,26.851-12.045,26.851-26.85
		S387.233,222.351,372.428,222.351z M372.428,261.051c-6.534,0-11.85-5.316-11.85-11.85s5.315-11.85,11.85-11.85
		s11.851,5.316,11.851,11.85S378.962,261.051,372.428,261.051z"/>
</g>
<g>
</g>
<g>
</g>
<g>
</g>
<g>
</g>
<g>
</g>
<g>
</g>
<g>
</g>
<g>
</g>
<g>
</g>
<g>
</g>
<g>
</g>
<g>
</g>
<g>
</g>
<g>
</g>
<g>
</g>
</svg>
