<?xml version="1.0" encoding="iso-8859-1"?>
<!-- Generator: Adobe Illustrator 21.0.0, SVG Export Plug-In . SVG Version: 6.00 Build 0)  -->
<svg version="1.1" id="Capa_1" xmlns="http://www.w3.org/2000/svg" xmlns:xlink="http://www.w3.org/1999/xlink" x="0px" y="0px"
	 viewBox="0 0 512 512" style="enable-background:new 0 0 512 512;" xml:space="preserve">
<g>
	<path d="M477.762,178.791h-56.331v-10.605c0-24.906-20.263-45.168-45.168-45.168H84.18c-3.033,0-5.433-2.614-5.145-5.687
		c0.246-2.608,2.668-4.65,5.515-4.65h326.543c25.357,0,45.755-20.884,45.156-46.253c-0.574-24.308-21.148-44.084-45.862-44.084
		h-80.901c-2.156,0-3.91-1.754-3.91-3.91v-8.385c0-5.54-4.507-10.047-10.047-10.047h-19.905c-5.54,0-10.047,4.507-10.047,10.047
		v8.385c0,24.212,19.698,43.91,43.91,43.91h81.607c3.026,0,5.434,2.607,5.144,5.687c-0.246,2.608-2.668,4.65-5.516,4.65H220.486
		c-4.142,0-7.5,3.358-7.5,7.5s3.358,7.5,7.5,7.5h190.236c10.503,0,19.486-8.014,20.449-18.244
		c1.127-11.964-8.314-22.093-20.078-22.093h-81.607c-15.941,0-28.91-12.969-28.91-28.91V15h10v3.433
		c0,10.427,8.483,18.91,18.91,18.91h80.901c16.636,0,30.483,13.206,30.866,29.439c0.4,16.923-13.221,30.898-30.16,30.898H84.55
		c-10.504,0-19.486,8.014-20.449,18.246c-1.125,11.963,8.315,22.092,20.079,22.092h292.083c16.635,0,30.168,13.534,30.168,30.168
		v10.605h-10v-10.605c0-11.121-9.047-20.168-20.168-20.168H84.887c-16.636,0-30.483-13.206-30.867-29.438
		C53.619,101.662,67.236,87.68,84.18,87.68h101.306c4.142,0,7.5-3.358,7.5-7.5s-3.358-7.5-7.5-7.5H84.18
		c-25.358,0-45.755,20.887-45.156,46.253c0.575,24.308,21.149,44.084,45.863,44.084h291.375c2.85,0,5.168,2.318,5.168,5.168v10.605
		H34.238C15.359,178.791,0,194.15,0,213.029v241.187C0,486.078,25.922,512,57.784,512h396.433C486.078,512,512,486.078,512,454.216
		V213.029C512,194.15,496.641,178.791,477.762,178.791z M454.216,497H57.784C34.193,497,15,477.807,15,454.216v-9.767
		c5.487,3.741,12.112,5.93,19.238,5.93h397.409c4.142,0,7.5-3.358,7.5-7.5s-3.358-7.5-7.5-7.5H34.238
		c-10.608,0-19.238-8.63-19.238-19.238V213.029c0-10.608,8.63-19.238,19.238-19.238h443.523c10.608,0,19.238,8.63,19.238,19.238
		v203.112c0,10.608-8.63,19.238-19.238,19.238h-11.115c-4.142,0-7.5,3.358-7.5,7.5s3.358,7.5,7.5,7.5h11.115
		c7.127,0,13.752-2.189,19.238-5.93v9.767C497,477.807,477.807,497,454.216,497z"/>
	<path d="M45.304,264.585h27.954c7.497,0,13.597-6.099,13.597-13.596v-27.954c0-7.497-6.1-13.596-13.597-13.596H45.304
		c-7.497,0-13.597,6.099-13.597,13.596v27.954C31.708,258.486,37.807,264.585,45.304,264.585z M46.708,224.439h25.147v25.146H46.708
		V224.439z"/>
	<path d="M110.877,264.585h27.954c7.497,0,13.596-6.099,13.596-13.596v-27.954c0-7.497-6.099-13.596-13.596-13.596h-27.954
		c-7.497,0-13.596,6.099-13.596,13.596v27.954C97.281,258.486,103.38,264.585,110.877,264.585z M112.281,224.439h25.146v25.146
		h-25.146V224.439z"/>
	<path d="M176.45,264.585h27.954c7.497,0,13.597-6.099,13.597-13.596v-27.954c0-7.497-6.1-13.596-13.597-13.596H176.45
		c-7.497,0-13.597,6.099-13.597,13.596v27.954C162.854,258.486,168.953,264.585,176.45,264.585z M177.854,224.439H203v25.146
		h-25.147V224.439z"/>
	<path d="M242.023,264.585h27.954c7.497,0,13.596-6.099,13.596-13.596v-27.954c0-7.497-6.099-13.596-13.596-13.596h-27.954
		c-7.497,0-13.596,6.099-13.596,13.596v27.954C228.427,258.486,234.526,264.585,242.023,264.585z M243.427,224.439h25.146v25.146
		h-25.146V224.439z"/>
	<path d="M307.596,264.585h27.954c7.497,0,13.597-6.099,13.597-13.596v-27.954c0-7.497-6.1-13.596-13.597-13.596h-27.954
		c-7.497,0-13.597,6.099-13.597,13.596v27.954C294,258.486,300.099,264.585,307.596,264.585z M309,224.439h25.147v25.146H309
		V224.439z"/>
	<path d="M373.169,264.585h27.954c7.497,0,13.596-6.099,13.596-13.596v-27.954c0-7.497-6.099-13.596-13.596-13.596h-27.954
		c-7.497,0-13.596,6.099-13.596,13.596v27.954C359.573,258.486,365.672,264.585,373.169,264.585z M374.573,224.439h25.146v25.146
		h-25.146V224.439z"/>
	<path d="M438.742,264.585h27.954c7.497,0,13.597-6.099,13.597-13.596v-27.954c0-7.497-6.1-13.596-13.597-13.596h-27.954
		c-7.497,0-13.597,6.099-13.597,13.596v27.954C425.146,258.486,431.245,264.585,438.742,264.585z M440.146,224.439h25.147v25.146
		h-25.147V224.439z"/>
	<path d="M45.304,340.183h60.74c7.497,0,13.596-6.1,13.596-13.597v-27.954c0-7.497-6.099-13.596-13.596-13.596h-60.74
		c-7.497,0-13.597,6.099-13.597,13.596v27.954C31.708,334.083,37.807,340.183,45.304,340.183z M46.708,300.036h57.933v25.147H46.708
		V300.036z"/>
	<path d="M466.696,285.036h-60.74c-7.497,0-13.596,6.099-13.596,13.596v27.954c0,7.497,6.099,13.597,13.596,13.597h60.74
		c7.497,0,13.597-6.1,13.597-13.597v-27.954C480.292,291.135,474.193,285.036,466.696,285.036z M465.292,325.183h-57.933v-25.147
		h57.933V325.183z"/>
	<path d="M143.664,285.036c-7.497,0-13.597,6.099-13.597,13.596v27.954c0,7.497,6.1,13.597,13.597,13.597h27.954
		c7.497,0,13.596-6.1,13.596-13.597v-27.954c0-7.497-6.099-13.596-13.596-13.596H143.664z M170.214,325.183h-25.147v-25.147h25.147
		V325.183z"/>
	<path d="M209.236,285.036c-7.497,0-13.596,6.099-13.596,13.596v27.954c0,7.497,6.099,13.597,13.596,13.597h27.954
		c7.497,0,13.597-6.1,13.597-13.597v-27.954c0-7.497-6.1-13.596-13.597-13.596H209.236z M235.787,325.183H210.64v-25.147h25.147
		V325.183z"/>
	<path d="M274.81,285.036c-7.497,0-13.597,6.099-13.597,13.596v27.954c0,7.497,6.1,13.597,13.597,13.597h27.954
		c7.497,0,13.596-6.1,13.596-13.597v-27.954c0-7.497-6.099-13.596-13.596-13.596H274.81z M301.36,325.183h-25.147v-25.147h25.147
		V325.183z"/>
	<path d="M340.382,285.036c-7.497,0-13.596,6.099-13.596,13.596v27.954c0,7.497,6.099,13.597,13.596,13.597h27.954
		c7.497,0,13.597-6.1,13.597-13.597v-27.954c0-7.497-6.1-13.596-13.597-13.596H340.382z M366.933,325.183h-25.147v-25.147h25.147
		V325.183z"/>
	<path d="M73.258,360.632H45.304c-7.497,0-13.597,6.1-13.597,13.597v27.954c0,7.497,6.1,13.596,13.597,13.596h27.954
		c7.497,0,13.597-6.099,13.597-13.596v-27.954C86.854,366.732,80.755,360.632,73.258,360.632z M71.854,400.779H46.708v-25.147
		h25.147V400.779z"/>
	<path d="M138.831,360.632h-27.954c-7.497,0-13.596,6.1-13.596,13.597v27.954c0,7.497,6.099,13.596,13.596,13.596h27.954
		c7.497,0,13.596-6.099,13.596-13.596v-27.954C152.427,366.732,146.328,360.632,138.831,360.632z M137.427,400.779h-25.146v-25.147
		h25.146V400.779z"/>
	<path d="M335.55,360.632H225.427c-4.142,0-7.5,3.358-7.5,7.5s3.358,7.5,7.5,7.5h108.72v25.147H177.854v-25.147h12.573
		c4.142,0,7.5-3.358,7.5-7.5s-3.358-7.5-7.5-7.5H176.45c-7.497,0-13.597,6.1-13.597,13.597v27.954c0,7.497,6.1,13.596,13.597,13.596
		h159.1c7.497,0,13.597-6.099,13.597-13.596v-27.954C349.146,366.732,343.047,360.632,335.55,360.632z"/>
	<path d="M401.123,360.632h-27.954c-7.497,0-13.596,6.1-13.596,13.597v27.954c0,7.497,6.099,13.596,13.596,13.596h27.954
		c7.497,0,13.596-6.099,13.596-13.596v-27.954C414.719,366.732,408.62,360.632,401.123,360.632z M399.719,400.779h-25.146v-25.147
		h25.146V400.779z"/>
	<path d="M480.292,402.183v-27.954c0-7.497-6.1-13.597-13.597-13.597h-27.954c-7.497,0-13.597,6.1-13.597,13.597v27.954
		c0,7.497,6.1,13.596,13.597,13.596h27.954C474.193,415.779,480.292,409.68,480.292,402.183z M465.292,400.779h-25.147v-25.147
		h25.147V400.779z"/>
	<path d="M326.514,466.189H185.486c-4.142,0-7.5,3.358-7.5,7.5s3.358,7.5,7.5,7.5h141.027c4.142,0,7.5-3.358,7.5-7.5
		S330.656,466.189,326.514,466.189z"/>
</g>
<g>
</g>
<g>
</g>
<g>
</g>
<g>
</g>
<g>
</g>
<g>
</g>
<g>
</g>
<g>
</g>
<g>
</g>
<g>
</g>
<g>
</g>
<g>
</g>
<g>
</g>
<g>
</g>
<g>
</g>
</svg>
