<?xml version="1.0" encoding="iso-8859-1"?>
<!-- Generator: Adobe Illustrator 21.0.0, SVG Export Plug-In . SVG Version: 6.00 Build 0)  -->
<svg version="1.1" id="Capa_1" xmlns="http://www.w3.org/2000/svg" xmlns:xlink="http://www.w3.org/1999/xlink" x="0px" y="0px"
	 viewBox="0 0 512 512" style="enable-background:new 0 0 512 512;" xml:space="preserve">
<g>
	<path d="M426.65,0H85.35C71.518,0,60.265,11.253,60.265,25.085v102.703c0,4.142,3.358,7.5,7.5,7.5s7.5-3.358,7.5-7.5v-21.174
		h269.901c4.142,0,7.5-3.358,7.5-7.5s-3.358-7.5-7.5-7.5H204.573V15H426.65c5.561,0,10.085,4.524,10.085,10.085v66.529h-56.568
		c-4.142,0-7.5,3.358-7.5,7.5s3.358,7.5,7.5,7.5h56.568v358.752c0,5.561-4.524,10.085-10.085,10.085H85.35
		c-5.561,0-10.085-4.524-10.085-10.085V162.788c0-4.142-3.358-7.5-7.5-7.5s-7.5,3.358-7.5,7.5v302.578
		c0,13.832,11.253,25.085,25.085,25.085h7.719l2.115,11.713c1.03,5.699,5.98,9.835,11.771,9.835h14.6
		c5.791,0,10.742-4.136,11.772-9.836l2.115-11.712h241.114l2.115,11.713c1.03,5.699,5.98,9.835,11.771,9.835h14.6
		c5.791,0,10.742-4.136,11.771-9.836l2.115-11.713h7.719c13.832,0,25.085-11.253,25.085-25.085V25.085
		C451.735,11.253,440.482,0,426.65,0z M75.265,91.614V49.617h23.713l3.121,11.426c2.058,7.534,8.949,12.796,16.759,12.796h27.122
		c7.811,0,14.703-5.262,16.759-12.796l3.121-11.426h23.713v41.997H75.265z M114.527,49.617h35.784l-2.042,7.474
		c-0.281,1.029-1.222,1.748-2.289,1.748h-27.122c-1.067,0-2.008-0.719-2.29-1.748L114.527,49.617z M189.573,34.617H75.265v-9.532
		C75.265,19.524,79.789,15,85.35,15h104.223V34.617z M119.018,497h-9.523l-1.183-6.549H120.2L119.018,497z M402.505,497h-9.523
		l-1.183-6.549h11.889L402.505,497z"/>
	<path d="M425.999,73.378V33.236c0-4.142-3.358-7.5-7.5-7.5h-81.091c-4.142,0-7.5,3.358-7.5,7.5v40.143c0,4.142,3.358,7.5,7.5,7.5
		h81.091C422.641,80.878,425.999,77.521,425.999,73.378z M410.999,65.878h-66.091V40.736h66.091V65.878z"/>
	<path d="M359.572,60.807h8.658c4.142,0,7.5-3.358,7.5-7.5s-3.358-7.5-7.5-7.5h-8.658c-4.142,0-7.5,3.358-7.5,7.5
		S355.43,60.807,359.572,60.807z"/>
	<path d="M387.678,60.807h8.658c4.142,0,7.5-3.358,7.5-7.5s-3.358-7.5-7.5-7.5h-8.658c-4.142,0-7.5,3.358-7.5,7.5
		S383.536,60.807,387.678,60.807z"/>
	<circle cx="220.163" cy="39.367" r="6.27"/>
	<circle cx="220.163" cy="67.248" r="6.27"/>
	<path d="M295.752,46.867c4.142,0,7.5-3.358,7.5-7.5s-3.358-7.5-7.5-7.5c-7.47,0-6.246-0.257-13.639,4.012
		c-8.716-7.605-21.668-7.596-30.373,0c-7.32-4.226-6.091-4.012-13.639-4.012c-4.142,0-7.5,3.358-7.5,7.5s3.358,7.5,7.5,7.5h2.67
		l3.457,1.996c-0.572,2.925-0.572,5.961,0,8.889l-3.457,1.996h-2.67c-4.142,0-7.5,3.358-7.5,7.5s3.358,7.5,7.5,7.5
		c7.47,0,6.245,0.256,13.639-4.012c8.716,7.604,21.667,7.595,30.373,0c7.363,4.252,6.134,4.012,13.639,4.012
		c4.142,0,7.5-3.358,7.5-7.5s-3.358-7.5-7.5-7.5h-2.671l-3.456-1.996c0.572-2.925,0.572-5.961,0-8.89l3.456-1.996H295.752z
		 M266.927,61.434c-4.481,0-8.127-3.646-8.127-8.127s3.646-8.127,8.127-8.127s8.127,3.646,8.127,8.127
		S271.408,61.434,266.927,61.434z"/>
	<circle cx="313.691" cy="39.367" r="6.27"/>
	<circle cx="313.691" cy="67.248" r="6.27"/>
	<path d="M342.938,263.293l-6.53-1.512v-12.255l6.531-1.512c4.035-0.934,6.549-4.963,5.615-8.999
		c-0.935-4.035-4.963-6.55-8.999-5.615l-12.339,2.857c-3.4,0.787-5.808,3.816-5.808,7.307v24.179c0,3.49,2.408,6.52,5.809,7.307
		l12.339,2.856c4.037,0.936,8.065-1.583,8.998-5.615C349.487,268.256,346.974,264.228,342.938,263.293z"/>
	<path d="M316.92,385.364v62.208c0,6.887,5.604,12.49,12.491,12.49h79.446c6.887,0,12.49-5.603,12.49-12.49v-62.208
		c0-6.887-5.603-12.491-12.49-12.491h-79.446C322.523,372.874,316.92,378.477,316.92,385.364z M376.933,387.874l-1.063,3.876
		h-13.475l-1.063-3.876H376.933z M331.92,387.874h13.861l2.318,8.46c1.681,6.133,7.296,10.417,13.656,10.417h14.758
		c6.359,0,11.974-4.283,13.655-10.417l2.318-8.459h13.861v57.189H331.92V387.874z"/>
	<path d="M126.898,434.098c-4.142,0-7.5,3.358-7.5,7.5s3.358,7.5,7.5,7.5h31.937c4.142,0,7.5-3.358,7.5-7.5s-3.358-7.5-7.5-7.5
		H126.898z"/>
	<path d="M104.857,416.468c0,4.142,3.358,7.5,7.5,7.5h61.02c4.142,0,7.5-3.358,7.5-7.5s-3.358-7.5-7.5-7.5h-61.02
		C108.215,408.968,104.857,412.326,104.857,416.468z"/>
	<path d="M256,360.003c-57.538,0-104.349-46.811-104.349-104.349c0-57.539,46.811-104.35,104.349-104.35
		c22.559,0,44.033,7.084,62.1,20.487c3.326,2.469,8.024,1.772,10.492-1.555c2.468-3.327,1.771-8.024-1.555-10.492
		c-20.671-15.334-45.235-23.44-71.037-23.44c-65.809,0-119.349,53.54-119.349,119.35c0,65.809,53.54,119.349,119.349,119.349
		c48.548,0,90.418-29.137,109.043-70.842c0.195-0.359,0.362-0.737,0.498-1.132c16.12-37.131,12.651-81.633-12.344-116.646
		c-2.407-3.372-7.091-4.154-10.462-1.746c-3.371,2.407-4.153,7.091-1.746,10.462c2.409,3.374,4.602,6.864,6.574,10.455l-27.1,6.275
		C306.02,190.64,281.808,177.689,256,177.689c-42.99,0-77.964,34.975-77.964,77.965S213.01,333.619,256,333.619
		c25.808,0,50.02-12.95,64.463-34.139l27.058,6.265C329.766,338.056,295.398,360.003,256,360.003z M256,192.689
		c19.156,0,37.225,8.838,49.082,23.56c-5.481,3.215-8.998,9.125-8.998,15.781v15.517c-6.548,4.174-9.75,7.608-19.376,7.608
		c-8.06,0-11.606-2.396-16.514-5.714c-5.462-3.692-12.26-8.286-24.913-8.286c-12.654,0-19.452,4.595-24.914,8.286
		c-5.778,3.905-9.291,5.884-17.33,5.705C193.312,220.66,221.451,192.689,256,192.689z M256,318.619
		c-29.733,0-54.718-20.715-61.281-48.472c12.101-0.204,18.712-4.672,24.048-8.279c4.908-3.317,8.454-5.714,16.514-5.714
		s11.606,2.396,16.514,5.714c5.462,3.692,12.259,8.286,24.913,8.286c8.769,0,14.727-2.206,19.376-4.789v13.913
		c0,6.655,3.516,12.566,8.998,15.781C293.225,309.78,275.156,318.619,256,318.619z M313.649,282.505
		c-1.511-0.35-2.565-1.677-2.565-3.227c0-39.789,0,27.486,0-47.249c0-1.55,1.055-2.877,2.565-3.227l40.272-9.325
		c8.481,22.941,8.679,48.835-0.034,72.344L313.649,282.505z"/>
</g>
<g>
</g>
<g>
</g>
<g>
</g>
<g>
</g>
<g>
</g>
<g>
</g>
<g>
</g>
<g>
</g>
<g>
</g>
<g>
</g>
<g>
</g>
<g>
</g>
<g>
</g>
<g>
</g>
<g>
</g>
</svg>
