<?xml version="1.0" encoding="iso-8859-1"?>
<!-- Generator: Adobe Illustrator 21.0.0, SVG Export Plug-In . SVG Version: 6.00 Build 0)  -->
<svg version="1.1" id="Capa_1" xmlns="http://www.w3.org/2000/svg" xmlns:xlink="http://www.w3.org/1999/xlink" x="0px" y="0px"
	 viewBox="0 0 512 512" style="enable-background:new 0 0 512 512;" xml:space="preserve">
<g>
	<path d="M406.693,218.7h-35.55c-4.143,0-7.5,3.358-7.5,7.5s3.357,7.5,7.5,7.5h35.55c26.569,0,48.185,21.616,48.185,48.186v95.898
		c-11.583-1.313-20.613-11.172-20.613-23.101v-74.171c0-14.446-11.753-26.198-26.198-26.198H252.289
		c-1.207,0-2.189-0.982-2.189-2.189v-16.236c0-1.207,0.982-2.189,2.189-2.189h83.854c4.143,0,7.5-3.358,7.5-7.5s-3.357-7.5-7.5-7.5
		h-83.854c-3.445,0-6.655,1.019-9.348,2.77l5.172-19.753c5.32,1.338,10.829,2.029,16.419,2.029h66.064
		c34.851,0,63.938-26.675,66.893-61.449l7.755-91.251c6.618-2.407,11.357-8.76,11.357-16.199V17.23c0-9.5-7.729-17.23-17.23-17.23
		H59.353c-9.5,0-17.23,7.729-17.23,17.23v17.616c0,7.243,4.493,13.457,10.837,16.001c0,34.383-0.434,63.585,5.165,109.53
		c0.463,3.804,3.698,6.594,7.436,6.594c4.525,0,7.997-3.953,7.454-8.408c-5.507-45.189-5.055-75.549-5.055-106.486h122.012
		l7.668,90.22c1.979,23.29,15.847,43.628,36.358,54.114L210.7,285.384H100.802c-9.689-30.248-17.328-61.356-22.722-92.552
		c-0.706-4.082-4.588-6.817-8.668-6.112c-4.082,0.706-6.818,4.586-6.112,8.668c5.712,33.035,13.887,65.975,24.305,97.938
		L53.486,460.952c-6.621,2.405-11.363,8.76-11.363,16.202v17.616c0,9.5,7.729,17.23,17.23,17.23h360.019
		c9.501,0,17.23-7.729,17.23-17.23v-17.616c0-7.242-4.491-13.454-10.834-15.999v-24.621c0-8.452-6.876-15.329-15.328-15.329h-2.54
		c5.377-6.763,8.594-15.317,8.594-24.609c0-44.87-11.896-88.674-34.484-127.282h26.056c6.175,0,11.198,5.023,11.198,11.198v74.171
		c0,21.091,17.158,38.249,38.249,38.249c6.817,0,12.364-5.547,12.364-12.365v-98.682C469.877,247.044,441.532,218.7,406.693,218.7z
		 M57.123,17.23c0-1.229,1-2.23,2.23-2.23h340.019c1.229,0,2.23,1,2.23,2.23v17.616c0,1.23-1.001,2.23-2.23,2.23H59.353
		c-1.229,0-2.23-1-2.23-2.23V17.23z M212.586,141.026l-7.56-88.949h185.078l-7.56,88.949c-2.313,27.205-24.645,47.72-51.947,47.72
		h-66.064c-11.51,0-19.11-3.663-19.857-3.85C227.05,177.729,214.302,161.221,212.586,141.026z M244.559,267.475
		c-8.261,13.851-15.137,28.385-20.57,43.409v-17.034l11.111-42.434v0.709C235.1,258.824,238.953,264.64,244.559,267.475z
		 M101.476,300.384h107.513v159.54H69.002L101.476,300.384z M410.768,436.533v23.39h-47.939c-4.143,0-7.5,3.358-7.5,7.5
		s3.357,7.5,7.5,7.5h56.543c1.229,0,2.23,1,2.23,2.23v17.616c0,1.229-1.001,2.23-2.23,2.23H59.353c-1.229,0-2.23-1-2.23-2.23
		v-17.616c0-1.23,1-2.23,2.23-2.23h268.476c4.143,0,7.5-3.358,7.5-7.5s-3.357-7.5-7.5-7.5h-103.84v-23.719
		C418.635,436.205,410.768,436.022,410.768,436.533z M248.597,421.205c-13.569,0-24.609-11.04-24.609-24.609
		c0-15.999,1.609-31.854,4.763-47.354c11.874,1.957,17.324,7.117,38.179,7.117c26.243,0,27.152-8,50.441-8
		c23.433,0,24.046,8,50.447,8c13.574,0,19.968-2.017,29.345-4.931c2.868,14.803,4.329,29.92,4.329,45.168
		c0,13.569-11.04,24.609-24.609,24.609H248.597z M393.835,336.759c-7.916,2.393-12.794,4.6-26.016,4.6c-23.433,0-24.046-8-50.447-8
		c-26.243,0-27.152,8-50.441,8c-18.105,0-21.313-4.313-34.718-6.734c6.215-22.962,15.89-44.966,28.815-65.29
		c0.064-0.1-2.16-0.021,103.411-0.021C377.632,290.044,387.586,312.784,393.835,336.759z"/>
	<path d="M163.867,214.909V91.59c0-14.177-11.534-25.711-25.712-25.711s-25.712,11.534-25.712,25.711v123.319
		c0,14.178,11.534,25.712,25.712,25.712S163.867,229.086,163.867,214.909z M148.867,161.724h-21.424v-16.949h21.424V161.724z
		 M148.867,129.775h-21.424v-16.948h21.424V129.775z M127.443,176.724h21.424v16.948h-21.424V176.724z M138.155,80.878
		c5.907,0,10.712,4.805,10.712,10.711v6.237h-21.424V91.59C127.443,85.684,132.248,80.878,138.155,80.878z M127.443,214.909v-6.237
		h21.424v6.237c0,5.907-4.805,10.712-10.712,10.712S127.443,220.815,127.443,214.909z"/>
	<path d="M250.01,112.827h95.111c9.798,0,17.769-7.971,17.769-17.769v-8.115c0-9.798-7.971-17.769-17.769-17.769H250.01
		c-9.798,0-17.769,7.971-17.769,17.769v8.115C232.24,104.855,240.212,112.827,250.01,112.827z M247.24,86.942
		c0-1.527,1.242-2.769,2.769-2.769h95.111c1.526,0,2.769,1.242,2.769,2.769v8.115c0,1.527-1.242,2.769-2.769,2.769H250.01
		c-1.527,0-2.769-1.242-2.769-2.769V86.942z"/>
	<path d="M147.3,316.865c-15.579,0-28.253,12.674-28.253,28.253s12.674,28.253,28.253,28.253c15.579,0,28.253-12.674,28.253-28.253
		S162.878,316.865,147.3,316.865z M147.3,358.371c-7.308,0-13.253-5.945-13.253-13.253s5.945-13.253,13.253-13.253
		c7.308,0,13.253,5.945,13.253,13.253S154.607,358.371,147.3,358.371z"/>
	<path d="M147.3,385.562c-15.579,0-28.253,12.674-28.253,28.253s12.674,28.253,28.253,28.253c15.579,0,28.253-12.674,28.253-28.253
		S162.878,385.562,147.3,385.562z M147.3,427.068c-7.308,0-13.253-5.945-13.253-13.253s5.945-13.253,13.253-13.253
		c7.308,0,13.253,5.945,13.253,13.253S154.607,427.068,147.3,427.068z"/>
	<path d="M333.789,291.747h24.776c4.143,0,7.5-3.358,7.5-7.5s-3.357-7.5-7.5-7.5h-24.776c-4.143,0-7.5,3.358-7.5,7.5
		S329.647,291.747,333.789,291.747z"/>
	<path d="M333.789,329.58h24.776c4.143,0,7.5-3.358,7.5-7.5s-3.357-7.5-7.5-7.5h-24.776c-4.143,0-7.5,3.358-7.5,7.5
		S329.647,329.58,333.789,329.58z"/>
	<path d="M358.566,360.938h-24.776c-4.143,0-7.5,3.358-7.5,7.5s3.357,7.5,7.5,7.5h24.776c4.143,0,7.5-3.358,7.5-7.5
		S362.708,360.938,358.566,360.938z"/>
	<path d="M358.566,398.771h-24.776c-4.143,0-7.5,3.358-7.5,7.5s3.357,7.5,7.5,7.5h24.776c4.143,0,7.5-3.358,7.5-7.5
		S362.708,398.771,358.566,398.771z"/>
</g>
<g>
</g>
<g>
</g>
<g>
</g>
<g>
</g>
<g>
</g>
<g>
</g>
<g>
</g>
<g>
</g>
<g>
</g>
<g>
</g>
<g>
</g>
<g>
</g>
<g>
</g>
<g>
</g>
<g>
</g>
</svg>
